<svg width="849" height="2173" viewBox="0 0 849 2173" version="1.1" xmlns="http://www.w3.org/2000/svg" xmlns:xlink="http://www.w3.org/1999/xlink" xmlns:figma="http://www.figma.com/figma/ns">
<title>main-outline</title>
<desc>Created using Figma</desc>
<g id="Canvas" transform="translate(-8692 -162)" figma:type="canvas">
<g id="main-outline" style="mix-blend-mode:normal;" figma:type="vector">
<use xlink:href="#path0_stroke" transform="translate(8694 162.5)" fill="#371E63" style="mix-blend-mode:normal;"/>
</g>
</g>
<defs>
<path id="path0_stroke" d="M 62.926 956.263L 62.926 957.763L 64.426 957.763L 64.426 956.263L 62.926 956.263ZM 62.9261 924.971L 64.4261 924.971L 64.4261 924.971L 62.9261 924.971ZM 815.035 268L 815.035 266.5L 815.035 266.5L 815.035 268ZM 844.979 360.695L 846.477 360.751L 846.479 360.723L 846.479 360.695L 844.979 360.695ZM 62.9234 956.269L 62.926 954.769L 61.4234 954.766L 61.4234 956.269L 62.9234 956.269ZM 62.9261 1376.34L 64.426 1376.36L 64.4261 1376.35L 64.4261 1376.34L 62.9261 1376.34ZM 678.58 1865.71L 677.08 1865.71L 677.08 1865.72L 678.58 1865.71ZM 391.46 268L 391.46 266.5L 391.46 266.5L 391.46 268ZM 844.979 299.124L 843.48 299.068L 843.479 299.096L 843.479 299.124L 844.979 299.124ZM 564.342 957.144L 564.339 958.644L 564.342 958.644L 564.342 957.144ZM 678.58 1436.5L 680.08 1436.5L 680.08 1436.5L 678.58 1436.5ZM 648.616 1895.85L 648.616 1894.35L 648.608 1894.35L 648.616 1895.85ZM 422.715 1865.71L 424.215 1865.71L 424.215 1865.71L 422.715 1865.71ZM 1.5 924.971C 1.5 908.49 14.849 894.763 31.2547 894.763L 31.2547 891.763C 13.1374 891.763 -1.5 906.889 -1.5 924.971L 1.5 924.971ZM 62.926 954.763C 52.7162 954.763 49.1137 954.763 45.906 954.763C 42.6983 954.763 39.8854 954.763 31.2547 954.763L 31.2547 957.763C 39.8854 957.763 42.6983 957.763 45.906 957.763C 49.1137 957.763 52.7162 957.763 62.926 957.763L 62.926 954.763ZM 31.2547 954.763C 14.8233 954.763 1.5 941.426 1.5 924.971L -1.5 924.971C -1.5 943.08 13.1631 957.763 31.2547 957.763L 31.2547 954.763ZM 31.2547 894.763C 41.2409 894.763 48.7424 898.245 53.7564 903.681C 58.7881 909.135 61.4261 916.679 61.4261 924.971L 64.4261 924.971C 64.4261 916.055 61.5864 907.744 55.9615 901.647C 50.3189 895.53 41.9847 891.763 31.2547 891.763L 31.2547 894.763ZM 61.4261 924.971C 61.4261 929.867 61.426 937.69 61.426 944.289C 61.426 947.588 61.426 950.582 61.426 952.75C 61.426 953.835 61.426 954.713 61.426 955.32C 61.426 955.623 61.426 955.859 61.426 956.019C 61.426 956.099 61.426 956.16 61.426 956.201C 61.426 956.221 61.426 956.237 61.426 956.247C 61.426 956.252 61.426 956.256 61.426 956.259C 61.426 956.26 61.426 956.261 61.426 956.262C 61.426 956.262 61.426 956.262 61.426 956.262C 61.426 956.263 61.426 956.263 62.926 956.263C 64.426 956.263 64.426 956.263 64.426 956.262C 64.426 956.262 64.426 956.262 64.426 956.262C 64.426 956.261 64.426 956.26 64.426 956.259C 64.426 956.256 64.426 956.252 64.426 956.247C 64.426 956.237 64.426 956.221 64.426 956.201C 64.426 956.16 64.426 956.099 64.426 956.019C 64.426 955.859 64.426 955.623 64.426 955.32C 64.426 954.713 64.426 953.835 64.426 952.75C 64.426 950.582 64.426 947.588 64.426 944.289C 64.426 937.69 64.4261 929.867 64.4261 924.971L 61.4261 924.971ZM 421.215 0L 421.215 268L 424.215 268L 424.215 0L 421.215 0ZM 422.715 269.5L 815.035 269.5L 815.035 266.5L 422.715 266.5L 422.715 269.5ZM 843.479 299.124L 843.479 360.695L 846.479 360.695L 846.479 299.124L 843.479 299.124ZM 815.035 388.071L 624.272 388.071L 624.272 391.071L 815.035 391.071L 815.035 388.071ZM 592.807 419.571L 592.807 927.108L 595.807 927.108L 595.807 419.571L 592.807 419.571ZM 564.345 955.644L 62.926 954.769L 62.9208 957.769L 564.339 958.644L 564.345 955.644ZM 61.4234 956.269L 61.4261 1376.34L 64.4261 1376.34L 64.4234 956.269L 61.4234 956.269ZM 93.0789 1408.14L 648.615 1408.14L 648.615 1405.14L 93.0789 1405.14L 93.0789 1408.14ZM 677.08 1436.5L 677.08 1865.71L 680.08 1865.71L 680.08 1436.5L 677.08 1436.5ZM 648.608 1894.35L 422.707 1895.5L 422.723 1898.5L 648.623 1897.35L 648.608 1894.35ZM 421.215 1897L 421.215 2172.03L 424.215 2172.03L 424.215 1897L 421.215 1897ZM 391.46 329.5C 375.003 329.5 361.289 316.138 361.289 299.709L 358.289 299.709C 358.289 317.843 373.395 332.5 391.46 332.5L 391.46 329.5ZM 421.215 268C 421.215 278.222 421.215 281.829 421.215 285.04C 421.215 288.251 421.215 291.068 421.215 299.709L 424.215 299.709C 424.215 291.068 424.215 288.251 424.215 285.04C 424.215 281.829 424.215 278.222 424.215 268L 421.215 268ZM 421.215 299.709C 421.215 316.164 407.892 329.5 391.46 329.5L 391.46 332.5C 409.552 332.5 424.215 317.817 424.215 299.709L 421.215 299.709ZM 361.289 299.709C 361.289 289.709 364.768 282.198 370.197 277.178C 375.645 272.141 383.179 269.5 391.46 269.5L 391.46 266.5C 382.554 266.5 374.251 269.343 368.161 274.975C 362.051 280.624 358.289 288.968 358.289 299.709L 361.289 299.709ZM 391.46 269.5C 396.35 269.5 404.164 269.5 410.755 269.5C 414.051 269.5 417.041 269.5 419.207 269.5C 420.29 269.5 421.167 269.5 421.773 269.5C 422.076 269.5 422.312 269.5 422.471 269.5C 422.551 269.5 422.612 269.5 422.653 269.5C 422.674 269.5 422.689 269.5 422.699 269.5C 422.705 269.5 422.709 269.5 422.711 269.5C 422.712 269.5 422.713 269.5 422.714 269.5C 422.714 269.5 422.715 269.5 422.715 269.5C 422.715 269.5 422.715 269.5 422.715 268C 422.715 266.5 422.715 266.5 422.715 266.5C 422.715 266.5 422.714 266.5 422.714 266.5C 422.713 266.5 422.712 266.5 422.711 266.5C 422.709 266.5 422.705 266.5 422.699 266.5C 422.689 266.5 422.674 266.5 422.653 266.5C 422.612 266.5 422.551 266.5 422.471 266.5C 422.312 266.5 422.076 266.5 421.773 266.5C 421.167 266.5 420.29 266.5 419.207 266.5C 417.041 266.5 414.051 266.5 410.755 266.5C 404.164 266.5 396.35 266.5 391.46 266.5L 391.46 269.5ZM 815.035 269.5C 831.172 269.5 844.084 282.918 843.48 299.068L 846.477 299.18C 847.146 281.335 832.876 266.5 815.035 266.5L 815.035 269.5ZM 843.48 360.639C 842.906 375.955 830.339 388.071 815.035 388.071L 815.035 391.071C 831.955 391.071 845.844 377.676 846.477 360.751L 843.48 360.639ZM 624.272 388.071C 606.893 388.071 592.807 402.176 592.807 419.571L 595.807 419.571C 595.807 403.83 608.553 391.071 624.272 391.071L 624.272 388.071ZM 592.807 927.108C 592.807 942.852 580.059 955.644 564.342 955.644L 564.342 958.644C 581.724 958.644 595.807 944.502 595.807 927.108L 592.807 927.108ZM 61.4261 1376.33C 61.2522 1393.86 75.5899 1408.14 93.0789 1408.14L 93.0789 1405.14C 77.237 1405.14 64.2688 1392.2 64.426 1376.36L 61.4261 1376.33ZM 648.615 1408.14C 664.283 1408.14 677.008 1420.82 677.08 1436.51L 680.08 1436.5C 680 1419.16 665.938 1405.14 648.615 1405.14L 648.615 1408.14ZM 677.08 1865.72C 677.152 1881.51 664.385 1894.35 648.616 1894.35L 648.616 1897.35C 666.051 1897.35 680.159 1883.15 680.08 1865.7L 677.08 1865.72ZM 360.29 1865.71C 360.29 1849.25 373.839 1835.5 390.541 1835.5L 390.541 1832.5C 372.172 1832.5 357.29 1847.6 357.29 1865.71L 360.29 1865.71ZM 422.715 1895.5C 412.343 1895.5 408.683 1895.5 405.425 1895.5C 402.166 1895.5 399.309 1895.5 390.541 1895.5L 390.541 1898.5C 399.309 1898.5 402.166 1898.5 405.425 1898.5C 408.683 1898.5 412.343 1898.5 422.715 1898.5L 422.715 1895.5ZM 390.541 1895.5C 373.813 1895.5 360.29 1882.14 360.29 1865.71L 357.29 1865.71C 357.29 1883.84 372.198 1898.5 390.541 1898.5L 390.541 1895.5ZM 390.541 1835.5C 400.699 1835.5 408.329 1838.99 413.425 1844.43C 418.538 1849.88 421.215 1857.42 421.215 1865.71L 424.215 1865.71C 424.215 1856.79 421.328 1848.47 415.614 1842.38C 409.885 1836.26 401.428 1832.5 390.541 1832.5L 390.541 1835.5ZM 421.215 1865.71C 421.215 1870.6 421.215 1878.43 421.215 1885.03C 421.215 1888.33 421.215 1891.32 421.215 1893.49C 421.215 1894.57 421.215 1895.45 421.215 1896.06C 421.215 1896.36 421.215 1896.6 421.215 1896.76C 421.215 1896.84 421.215 1896.9 421.215 1896.94C 421.215 1896.96 421.215 1896.97 421.215 1896.98C 421.215 1896.99 421.215 1896.99 421.215 1897C 421.215 1897 421.215 1897 421.215 1897C 421.215 1897 421.215 1897 421.215 1897C 421.215 1897 421.215 1897 422.715 1897C 424.215 1897 424.215 1897 424.215 1897C 424.215 1897 424.215 1897 424.215 1897C 424.215 1897 424.215 1897 424.215 1897C 424.215 1896.99 424.215 1896.99 424.215 1896.98C 424.215 1896.97 424.215 1896.96 424.215 1896.94C 424.215 1896.9 424.215 1896.84 424.215 1896.76C 424.215 1896.6 424.215 1896.36 424.215 1896.06C 424.215 1895.45 424.215 1894.57 424.215 1893.49C 424.215 1891.32 424.215 1888.33 424.215 1885.03C 424.215 1878.43 424.215 1870.6 424.215 1865.71L 421.215 1865.71Z"/>
</defs>
</svg>
