<svg width="304" height="1567" viewBox="0 0 304 1567" version="1.1" xmlns="http://www.w3.org/2000/svg" xmlns:xlink="http://www.w3.org/1999/xlink">
<g id="Canvas" transform="translate(-9885 457)">
<g id="outline-mobile" style="mix-blend-mode:normal;">
<use xlink:href="#path0_stroke" transform="translate(9887 -459)" fill="#371E63" style="mix-blend-mode:normal;"/>
</g></g><defs>
<path id="path0_stroke" d="M 23.9594 598.873L 22.4597 598.899L 22.4597 598.901L 23.9594 598.873ZM 300 138L 301.5 138L 301.5 138L 300 138ZM 299.933 581L 298.433 581L 298.433 581L 299.933 581ZM 24.257 755.472L 25.757 755.472L 25.757 755.472L 24.257 755.472ZM 2.75204 1101.24L 4.25204 1101.24L 4.25204 1101.24L 2.75204 1101.24ZM 2.72195 1472L 1.22195 1472L 1.22195 1472L 2.72195 1472ZM 156.806 1501.75L 156.838 1503.25L 156.838 1503.25L 156.806 1501.75ZM 144.692 120.248L 143.192 120.234L 143.192 120.248L 144.692 120.248ZM 132.642 108L 132.642 106.5L 132.626 106.5L 132.61 106.5L 132.642 108ZM 11.8667 587.5L 11.9808 587.5L 11.9808 584.5L 11.8667 584.5L 11.8667 587.5ZM 22.4597 598.901L 22.6901 611.028L 25.6896 610.972L 25.4592 598.844L 22.4597 598.901ZM 24.1899 609.5L 11.8667 609.5L 11.8667 612.5L 24.1899 612.5L 24.1899 609.5ZM -1.5 599C -1.5 607.038 4.51454 612.5 11.8667 612.5L 11.8667 609.5C 6.11129 609.5 1.5 605.322 1.5 599L -1.5 599ZM 1.5 599C 1.5 592.517 6.26718 587.5 11.8667 587.5L 11.8667 584.5C 4.35865 584.5 -1.5 591.124 -1.5 599L 1.5 599ZM 11.9808 587.5C 17.5672 587.5 22.3463 592.44 22.4597 598.899L 25.4592 598.846C 25.3216 591.007 19.4486 584.5 11.9808 584.5L 11.9808 587.5ZM 143.304 0L 143.304 108L 146.304 108L 146.304 0L 143.304 0ZM 144.804 109.5L 272.615 109.5L 272.615 106.5L 144.804 106.5L 144.804 109.5ZM 298.5 138L 298.433 581L 301.433 581L 301.5 138L 298.5 138ZM 272.548 609.5L 24.1899 609.5L 24.1899 612.5L 272.548 612.5L 272.548 609.5ZM 22.6899 611.001L 22.757 755.473L 25.757 755.472L 25.6899 610.999L 22.6899 611.001ZM 51.5616 786.972L 272.615 786.972L 272.615 783.972L 51.5616 783.972L 51.5616 786.972ZM 298.5 815.472L 298.5 1041.24L 301.5 1041.24L 301.5 815.472L 298.5 815.472ZM 272.615 1069.74L 30.1368 1069.74L 30.1368 1072.74L 272.615 1072.74L 272.615 1069.74ZM 1.25204 1101.24L 1.22195 1472L 4.22195 1472L 4.25204 1101.24L 1.25204 1101.24ZM 30.1067 1503.5L 144.823 1503.5L 144.823 1500.5L 30.1067 1500.5L 30.1067 1503.5ZM 143.323 1502L 143.318 1568.32L 146.318 1568.32L 146.323 1502L 143.323 1502ZM 272.615 109.5C 286.785 109.5 298.5 122.128 298.5 138L 301.5 138C 301.5 120.735 288.694 106.5 272.615 106.5L 272.615 109.5ZM 298.433 581C 298.433 596.872 286.718 609.5 272.548 609.5L 272.548 612.5C 288.627 612.5 301.433 598.265 301.433 581L 298.433 581ZM 22.757 755.472C 22.757 772.732 35.4777 786.972 51.5616 786.972L 51.5616 783.972C 37.3971 783.972 25.757 771.35 25.757 755.472L 22.757 755.472ZM 272.615 786.972C 286.785 786.972 298.5 799.601 298.5 815.472L 301.5 815.472C 301.5 798.207 288.694 783.972 272.615 783.972L 272.615 786.972ZM 298.5 1041.24C 298.5 1057.11 286.785 1069.74 272.615 1069.74L 272.615 1072.74C 288.694 1072.74 301.5 1058.51 301.5 1041.24L 298.5 1041.24ZM 30.1368 1069.74C 14.0584 1069.74 1.25204 1083.97 1.25204 1101.24L 4.25204 1101.24C 4.25204 1085.37 15.9669 1072.74 30.1368 1072.74L 30.1368 1069.74ZM 1.22195 1472C 1.22195 1489.27 14.0283 1503.5 30.1067 1503.5L 30.1067 1500.5C 15.9368 1500.5 4.22195 1487.87 4.22195 1472L 1.22195 1472ZM 167.057 1489.5L 167.057 1489.62L 170.057 1489.62L 170.057 1489.5L 167.057 1489.5ZM 156.775 1500.25L 144.792 1500.5L 144.855 1503.5L 156.838 1503.25L 156.775 1500.25ZM 146.323 1502L 146.323 1489.5L 143.323 1489.5L 143.323 1502L 146.323 1502ZM 156.69 1475C 149.182 1475 143.323 1481.62 143.323 1489.5L 146.323 1489.5C 146.323 1483.02 151.09 1478 156.69 1478L 156.69 1475ZM 156.69 1478C 162.29 1478 167.057 1483.02 167.057 1489.5L 170.057 1489.5C 170.057 1481.62 164.198 1475 156.69 1475L 156.69 1478ZM 167.057 1489.62C 167.057 1495.93 162.516 1500.13 156.775 1500.25L 156.838 1503.25C 164.149 1503.09 170.057 1497.62 170.057 1489.62L 167.057 1489.62ZM 122.391 120.248L 122.391 120.123L 119.391 120.123L 119.391 120.248L 122.391 120.248ZM 132.642 109.5L 144.804 109.5L 144.804 106.5L 132.642 106.5L 132.642 109.5ZM 143.304 107.986L 143.192 120.234L 146.192 120.261L 146.304 108.014L 143.304 107.986ZM 132.642 134.25C 140.046 134.25 146.192 128.233 146.192 120.248L 143.192 120.248C 143.192 126.621 138.345 131.25 132.642 131.25L 132.642 134.25ZM 132.642 131.25C 126.987 131.25 122.391 126.671 122.391 120.248L 119.391 120.248C 119.391 128.183 125.189 134.25 132.642 134.25L 132.642 131.25ZM 122.391 120.123C 122.391 113.819 126.932 109.621 132.673 109.5L 132.61 106.5C 125.3 106.654 119.391 112.125 119.391 120.123L 122.391 120.123Z"/>
</defs></svg>
