<svg id="main-outline" width="850" height="2173" viewBox="0 0 850 2173" version="1.1" xmlns="http://www.w3.org/2000/svg" xmlns:xlink="http://www.w3.org/1999/xlink">
<g id="Canvas" transform="translate(-8683 -162)">
<g id="main-outline" style="mix-blend-mode:normal;">
<use xlink:href="#path0_stroke" transform="translate(8684.81 162.5)" fill="#371E63" style="mix-blend-mode:normal;"/>
</g></g>
<defs>
<path id="path0_stroke" d="M 63 956.263L 63 957.763L 64.5 957.763L 64.5 956.263L 63 956.263ZM 63 924.971L 64.5 924.971L 64.5 924.971L 63 924.971ZM 815.992 268L 815.992 266.5L 815.992 266.5L 815.992 268ZM 845.971 360.695L 847.47 360.751L 847.471 360.723L 847.471 360.695L 845.971 360.695ZM 62.9973 956.269L 62.9999 954.769L 61.4973 954.766L 61.4973 956.269L 62.9973 956.269ZM 63 1376.34L 64.4999 1376.36L 64.5 1376.35L 64.5 1376.34L 63 1376.34ZM 679.377 1865.71L 677.877 1865.71L 677.877 1865.72L 679.377 1865.71ZM 371.897 268L 371.897 266.5L 371.897 266.5L 371.897 268ZM 845.971 299.124L 844.472 299.068L 844.471 299.096L 844.471 299.124L 845.971 299.124ZM 565.005 957.144L 565.003 958.644L 565.005 958.644L 565.005 957.144ZM 679.377 1436.5L 680.877 1436.5L 680.877 1436.5L 679.377 1436.5ZM 649.378 1895.85L 649.378 1894.35L 649.371 1894.35L 649.378 1895.85ZM 403.188 1865.71L 404.688 1865.71L 404.688 1865.71L 403.188 1865.71ZM 1.5 924.971C 1.5 908.492 14.8638 894.763 31.2914 894.763L 31.2914 891.763C 13.1555 891.763 -1.5 906.887 -1.5 924.971L 1.5 924.971ZM 63 954.763C 52.7781 954.763 49.1714 954.763 45.96 954.763C 42.7485 954.763 39.9323 954.763 31.2914 954.763L 31.2914 957.763C 39.9323 957.763 42.7485 957.763 45.96 957.763C 49.1714 957.763 52.7781 957.763 63 957.763L 63 954.763ZM 31.2914 954.763C 14.8381 954.763 1.5 941.425 1.5 924.971L -1.5 924.971C -1.5 943.081 13.1812 957.763 31.2914 957.763L 31.2914 954.763ZM 31.2914 894.763C 41.2904 894.763 48.8013 898.246 53.8215 903.681C 58.8591 909.136 61.5 916.679 61.5 924.971L 64.5 924.971C 64.5 916.055 61.6568 907.744 56.0253 901.646C 50.3763 895.53 42.033 891.763 31.2914 891.763L 31.2914 894.763ZM 61.5 924.971C 61.5 929.867 61.5 937.69 61.5 944.289C 61.5 947.588 61.5 950.582 61.5 952.75C 61.5 953.835 61.5 954.713 61.5 955.32C 61.5 955.623 61.5 955.859 61.5 956.019C 61.5 956.099 61.5 956.16 61.5 956.201C 61.5 956.221 61.5 956.237 61.5 956.247C 61.5 956.252 61.5 956.256 61.5 956.259C 61.5 956.26 61.5 956.261 61.5 956.262C 61.5 956.262 61.5 956.262 61.5 956.262C 61.5 956.263 61.5 956.263 63 956.263C 64.5 956.263 64.5 956.263 64.5 956.262C 64.5 956.262 64.5 956.262 64.5 956.262C 64.5 956.261 64.5 956.26 64.5 956.259C 64.5 956.256 64.5 956.252 64.5 956.247C 64.5 956.237 64.5 956.221 64.5 956.201C 64.5 956.16 64.5 956.099 64.5 956.019C 64.5 955.859 64.5 955.623 64.5 955.32C 64.5 954.713 64.5 953.835 64.5 952.75C 64.5 950.582 64.5 947.588 64.5 944.289C 64.5 937.69 64.5 929.867 64.5 924.971L 61.5 924.971ZM 401.688 0L 401.688 268L 404.688 268L 404.688 0L 401.688 0ZM 403.188 269.5L 815.992 269.5L 815.992 266.5L 403.188 266.5L 403.188 269.5ZM 844.471 299.124L 844.471 360.695L 847.471 360.695L 847.471 299.124L 844.471 299.124ZM 815.992 388.071L 625.005 388.071L 625.005 391.071L 815.992 391.071L 815.992 388.071ZM 593.505 419.571L 593.505 927.108L 596.505 927.108L 596.505 419.571L 593.505 419.571ZM 565.008 955.644L 62.9999 954.769L 62.9947 957.769L 565.003 958.644L 565.008 955.644ZM 61.4973 956.269L 61.5 1376.34L 64.5 1376.34L 64.4973 956.269L 61.4973 956.269ZM 93.1883 1408.14L 649.377 1408.14L 649.377 1405.14L 93.1883 1405.14L 93.1883 1408.14ZM 677.877 1436.5L 677.877 1865.71L 680.877 1865.71L 680.877 1436.5L 677.877 1436.5ZM 649.371 1894.35L 403.181 1895.5L 403.195 1898.5L 649.385 1897.35L 649.371 1894.35ZM 401.688 1897L 401.688 2172.03L 404.688 2172.03L 404.688 1897L 401.688 1897ZM 371.897 329.5C 355.418 329.5 341.688 316.136 341.688 299.709L 338.688 299.709C 338.688 317.844 353.813 332.5 371.897 332.5L 371.897 329.5ZM 401.688 268C 401.688 278.222 401.688 281.829 401.688 285.04C 401.688 288.251 401.688 291.068 401.688 299.709L 404.688 299.709C 404.688 291.068 404.688 288.251 404.688 285.04C 404.688 281.829 404.688 278.222 404.688 268L 401.688 268ZM 401.688 299.709C 401.688 316.162 388.35 329.5 371.897 329.5L 371.897 332.5C 390.007 332.5 404.688 317.819 404.688 299.709L 401.688 299.709ZM 341.688 299.709C 341.688 289.71 345.171 282.199 350.607 277.178C 356.062 272.141 363.605 269.5 371.897 269.5L 371.897 266.5C 362.98 266.5 354.669 269.343 348.572 274.975C 342.455 280.624 338.688 288.967 338.688 299.709L 341.688 299.709ZM 371.897 269.5C 376.793 269.5 384.615 269.5 391.214 269.5C 394.514 269.5 397.507 269.5 399.676 269.5C 400.76 269.5 401.638 269.5 402.245 269.5C 402.549 269.5 402.784 269.5 402.944 269.5C 403.024 269.5 403.085 269.5 403.126 269.5C 403.147 269.5 403.162 269.5 403.173 269.5C 403.178 269.5 403.182 269.5 403.184 269.5C 403.186 269.5 403.187 269.5 403.187 269.5C 403.188 269.5 403.188 269.5 403.188 269.5C 403.188 269.5 403.188 269.5 403.188 268C 403.188 266.5 403.188 266.5 403.188 266.5C 403.188 266.5 403.188 266.5 403.187 266.5C 403.187 266.5 403.186 266.5 403.184 266.5C 403.182 266.5 403.178 266.5 403.173 266.5C 403.162 266.5 403.147 266.5 403.126 266.5C 403.085 266.5 403.024 266.5 402.944 266.5C 402.784 266.5 402.549 266.5 402.245 266.5C 401.638 266.5 400.76 266.5 399.676 266.5C 397.507 266.5 394.514 266.5 391.214 266.5C 384.615 266.5 376.793 266.5 371.897 266.5L 371.897 269.5ZM 815.992 269.5C 832.151 269.5 845.078 282.92 844.472 299.068L 847.47 299.18C 848.139 281.333 833.852 266.5 815.992 266.5L 815.992 269.5ZM 844.472 360.639C 843.898 375.953 831.317 388.071 815.992 388.071L 815.992 391.071C 832.93 391.071 846.836 377.677 847.47 360.751L 844.472 360.639ZM 625.005 388.071C 607.609 388.071 593.505 402.174 593.505 419.571L 596.505 419.571C 596.505 403.831 609.265 391.071 625.005 391.071L 625.005 388.071ZM 593.505 927.108C 593.505 942.851 580.743 955.644 565.005 955.644L 565.005 958.644C 582.404 958.644 596.505 944.503 596.505 927.108L 593.505 927.108ZM 61.5001 1376.33C 61.3259 1393.86 75.6814 1408.14 93.1883 1408.14L 93.1883 1405.14C 77.3251 1405.14 64.3426 1392.19 64.4999 1376.36L 61.5001 1376.33ZM 649.377 1408.14C 665.066 1408.14 677.805 1420.82 677.877 1436.51L 680.877 1436.5C 680.798 1419.15 666.718 1405.14 649.377 1405.14L 649.377 1408.14ZM 677.877 1865.72C 677.949 1881.51 665.169 1894.35 649.378 1894.35L 649.378 1897.35C 666.831 1897.35 680.957 1883.15 680.877 1865.7L 677.877 1865.72ZM 340.688 1865.71C 340.688 1849.25 354.252 1835.5 370.976 1835.5L 370.976 1832.5C 352.588 1832.5 337.688 1847.6 337.688 1865.71L 340.688 1865.71ZM 403.188 1895.5C 392.804 1895.5 389.14 1895.5 385.878 1895.5C 382.615 1895.5 379.754 1895.5 370.976 1895.5L 370.976 1898.5C 379.754 1898.5 382.615 1898.5 385.878 1898.5C 389.14 1898.5 392.804 1898.5 403.188 1898.5L 403.188 1895.5ZM 370.976 1895.5C 354.226 1895.5 340.688 1882.14 340.688 1865.71L 337.688 1865.71C 337.688 1883.84 352.614 1898.5 370.976 1898.5L 370.976 1895.5ZM 370.976 1835.5C 381.148 1835.5 388.787 1838.99 393.89 1844.43C 399.008 1849.88 401.688 1857.42 401.688 1865.71L 404.688 1865.71C 404.688 1856.79 401.797 1848.47 396.077 1842.37C 390.342 1836.26 381.875 1832.5 370.976 1832.5L 370.976 1835.5ZM 401.688 1865.71C 401.688 1870.6 401.688 1878.43 401.688 1885.03C 401.688 1888.33 401.688 1891.32 401.688 1893.49C 401.688 1894.57 401.688 1895.45 401.688 1896.06C 401.688 1896.36 401.688 1896.6 401.688 1896.76C 401.688 1896.84 401.688 1896.9 401.688 1896.94C 401.688 1896.96 401.688 1896.97 401.688 1896.98C 401.688 1896.99 401.688 1896.99 401.688 1897C 401.688 1897 401.688 1897 401.688 1897C 401.688 1897 401.688 1897 401.688 1897C 401.688 1897 401.688 1897 403.188 1897C 404.688 1897 404.688 1897 404.688 1897C 404.688 1897 404.688 1897 404.688 1897C 404.688 1897 404.688 1897 404.688 1897C 404.688 1896.99 404.688 1896.99 404.688 1896.98C 404.688 1896.97 404.688 1896.96 404.688 1896.94C 404.688 1896.9 404.688 1896.84 404.688 1896.76C 404.688 1896.6 404.688 1896.36 404.688 1896.06C 404.688 1895.45 404.688 1894.57 404.688 1893.49C 404.688 1891.32 404.688 1888.33 404.688 1885.03C 404.688 1878.43 404.688 1870.6 404.688 1865.71L 401.688 1865.71ZM"/>
</defs></svg>
