<svg width="262" height="1559" viewBox="0 0 262 1559" version="1.1" xmlns="http://www.w3.org/2000/svg" xmlns:xlink="http://www.w3.org/1999/xlink">
<g id="Canvas" transform="translate(-9906 -171)"><g id="outline-mobile" style="mix-blend-mode:normal;">
<use xlink:href="#path0_stroke" transform="translate(9908 171)" fill="#371E63" style="mix-blend-mode:normal;"/>
</g></g>
<defs>
<path id="path0_stroke" d="M 23.9254 597.873L 25.4251 597.846L 25.4251 597.846L 23.9254 597.873ZM 257.574 138L 259.074 138L 259.074 138L 257.574 138ZM 257.507 581L 256.007 581L 256.007 581L 257.507 581ZM 24.2225 755.472L 25.7225 755.472L 25.7225 755.472L 24.2225 755.472ZM 2.73391 1101.24L 4.23391 1101.24L 4.23391 1101.24L 2.73391 1101.24ZM 2.70387 1472L 1.20387 1472L 1.20387 1472L 2.70387 1472ZM 139.579 1501.75L 139.611 1503.25L 139.611 1503.25L 139.579 1501.75ZM 128.481 121.248L 126.981 121.235L 126.981 121.248L 128.481 121.248ZM 116.448 108L 116.448 106.5L 116.432 106.5L 116.416 106.5L 116.448 108ZM 11.8499 586.5L 11.9638 586.5L 11.9638 583.5L 11.8499 583.5L 11.8499 586.5ZM 22.4256 597.899L 22.6557 611.026L 25.6552 610.974L 25.4251 597.846L 22.4256 597.899ZM 24.1555 609.5L 11.8499 609.5L 11.8499 612.5L 24.1555 612.5L 24.1555 609.5ZM -1.5 598C -1.5 605.874 4.34919 612.5 11.8499 612.5L 11.8499 609.5C 6.26153 609.5 1.5 604.485 1.5 598L -1.5 598ZM 1.5 598C 1.5 591.515 6.26153 586.5 11.8499 586.5L 11.8499 583.5C 4.34919 583.5 -1.5 590.126 -1.5 598L 1.5 598ZM 11.9638 586.5C 17.539 586.5 22.3123 591.438 22.4256 597.899L 25.4251 597.846C 25.2878 590.01 19.4241 583.5 11.9638 583.5L 11.9638 586.5ZM 127.092 0L 127.092 108L 130.092 108L 130.092 0L 127.092 0ZM 128.592 109.5L 230.228 109.5L 230.228 106.5L 128.592 106.5L 128.592 109.5ZM 256.074 138L 256.007 581L 259.007 581L 259.074 138L 256.074 138ZM 230.161 609.5L 24.1555 609.5L 24.1555 612.5L 230.161 612.5L 230.161 609.5ZM 22.6555 611.001L 22.7225 755.473L 25.7225 755.472L 25.6555 610.999L 22.6555 611.001ZM 51.4883 786.972L 230.228 786.972L 230.228 783.972L 51.4883 783.972L 51.4883 786.972ZM 256.074 815.472L 256.074 1041.24L 259.074 1041.24L 259.074 815.472L 256.074 815.472ZM 230.228 1069.74L 30.0797 1069.74L 30.0797 1072.74L 230.228 1072.74L 230.228 1069.74ZM 1.23391 1101.24L 1.20387 1472L 4.20387 1472L 4.23391 1101.24L 1.23391 1101.24ZM 30.0497 1503.5L 127.613 1503.5L 127.613 1500.5L 30.0497 1500.5L 30.0497 1503.5ZM 126.113 1502L 126.108 1558.32L 129.108 1558.32L 129.113 1502L 126.113 1502ZM 230.228 109.5C 244.374 109.5 256.074 122.126 256.074 138L 259.074 138C 259.074 120.737 246.287 106.5 230.228 106.5L 230.228 109.5ZM 256.007 581C 256.007 596.874 244.307 609.5 230.161 609.5L 230.161 612.5C 246.22 612.5 259.007 598.263 259.007 581L 256.007 581ZM 22.7225 755.472C 22.7225 772.73 35.424 786.972 51.4883 786.972L 51.4883 783.972C 37.3472 783.972 25.7225 771.352 25.7225 755.472L 22.7225 755.472ZM 230.228 786.972C 244.374 786.972 256.074 799.599 256.074 815.472L 259.074 815.472C 259.074 798.209 246.287 783.972 230.228 783.972L 230.228 786.972ZM 256.074 1041.24C 256.074 1057.11 244.374 1069.74 230.228 1069.74L 230.228 1072.74C 246.287 1072.74 259.074 1058.5 259.074 1041.24L 256.074 1041.24ZM 30.0797 1069.74C 14.0209 1069.74 1.23391 1083.98 1.23391 1101.24L 4.23391 1101.24C 4.23391 1085.37 15.9332 1072.74 30.0797 1072.74L 30.0797 1069.74ZM 1.20387 1472C 1.20387 1489.26 13.9908 1503.5 30.0497 1503.5L 30.0497 1500.5C 15.9032 1500.5 4.20387 1487.87 4.20387 1472L 1.20387 1472ZM 149.813 1488.5L 149.813 1488.62L 152.813 1488.62L 152.813 1488.5L 149.813 1488.5ZM 139.547 1500.25L 127.582 1500.5L 127.645 1503.5L 139.611 1503.25L 139.547 1500.25ZM 129.113 1502L 129.113 1488.5L 126.113 1488.5L 126.113 1502L 129.113 1502ZM 139.463 1474C 131.962 1474 126.113 1480.63 126.113 1488.5L 129.113 1488.5C 129.113 1482.01 133.875 1477 139.463 1477L 139.463 1474ZM 139.463 1477C 145.051 1477 149.813 1482.01 149.813 1488.5L 152.813 1488.5C 152.813 1480.63 146.964 1474 139.463 1474L 139.463 1477ZM 149.813 1488.62C 149.813 1495.09 145.124 1500.13 139.547 1500.25L 139.611 1503.25C 147.067 1503.09 152.813 1496.46 152.813 1488.62L 149.813 1488.62ZM 106.214 121.248L 106.214 121.123L 103.214 121.123L 103.214 121.248L 106.214 121.248ZM 116.448 109.5L 128.592 109.5L 128.592 106.5L 116.448 106.5L 116.448 109.5ZM 127.092 107.987L 126.981 121.235L 129.981 121.26L 130.092 108.013L 127.092 107.987ZM 116.448 135.25C 123.845 135.25 129.981 129.231 129.981 121.248L 126.981 121.248C 126.981 127.623 122.14 132.25 116.448 132.25L 116.448 135.25ZM 116.448 132.25C 110.804 132.25 106.214 127.673 106.214 121.248L 103.214 121.248C 103.214 129.181 109.002 135.25 116.448 135.25L 116.448 132.25ZM 106.214 121.123C 106.214 114.659 110.902 109.617 116.479 109.5L 116.416 106.5C 108.96 106.658 103.214 113.286 103.214 121.123L 106.214 121.123Z"/>
</defs>
</svg>
