<svg width="300px" height="300px" viewBox="0 0 300 300" version="1.1" xmlns="http://www.w3.org/2000/svg" xmlns:xlink="http://www.w3.org/1999/xlink">
    <title>CLOCK</title>
    <g id="svg-clock" stroke="none" stroke-width="1" fill="none" fill-rule="evenodd" sketch:type="MSPage">
        <g id="MOVELLUS-DESKTOP" sketch:type="MSArtboardGroup" transform="translate(-584.000000, -1486.000000)">
            <g id="CLOCK-2" sketch:type="MSLayerGroup" transform="translate(584.000000, 1486.000000)">
                <circle id="Base-Badge" stroke="#3F206E" stroke-width="3" fill="#FFFFFF" sketch:type="MSShapeGroup" cx="150" cy="150" r="150"></circle>
                <path d="M215.788521,85 L297.887307,166.885877 C297.887307,166.885877 300.83333,205 262.499997,247.5 C224.166663,290 168.840327,297.912245 168.840327,297.912245 L77.5020822,207.670316 L215.788521,85 Z" id="shadow" fill="#E0DBE8" sketch:type="MSShapeGroup"></path>
                <circle id="Base-Badge-4" stroke="#3F206E" stroke-width="3" sketch:type="MSShapeGroup" cx="150" cy="150" r="150"></circle>
                <circle id="frame" stroke="#3F206E" stroke-width="3" fill="#FFFFFF" sketch:type="MSShapeGroup" cx="150" cy="150" r="90.8333333"></circle>
                <g id="hour-dots" transform="translate(73.333333, 70.833333)" sketch:type="MSShapeGroup">
                    <ellipse id="12pm" stroke="#3F206E" fill="#523C64" cx="78.1282552" cy="4.60399449" rx="4.35221354" ry="4.60399449"></ellipse>
                    <path d="M145.35941,76.1105889 C145.35941,78.4592044 147.263339,80.3631334 149.611955,80.3631334 C151.96057,80.3631334 153.864499,78.4592044 153.864499,76.1105889 C153.864499,73.7619734 151.96057,71.8580444 149.611955,71.8580444 C147.263339,71.8580444 145.35941,73.7619734 145.35941,76.1105889 L145.35941,76.1105889 Z" id="3pm" fill="#C1B8D1"></path>
                    <path d="M8.7144747,77.5445246 C8.7144747,75.1959091 6.81054566,73.2919801 4.46193017,73.2919801 C2.11331468,73.2919801 0.209385642,75.1959091 0.209385642,77.5445246 C0.209385642,79.8931401 2.11331468,81.7970691 4.46193017,81.7970691 C6.81054566,81.7970691 8.7144747,79.8931401 8.7144747,77.5445246 L8.7144747,77.5445246 Z" id="9pm" fill="#654D8B"></path>
                    <path d="M78.8606771,153.75 L78.8606771,153.75" id="6pm" stroke="#8C79A8" stroke-width="11" stroke-linecap="round"></path>
                </g>
                <path d="M151.666667,150.416667 L151.666667,206.666667" id="minute" stroke="#8C79A8" stroke-width="6" stroke-linecap="round" sketch:type="MSShapeGroup"></path>
                <path d="M152.083333,150.416667 L172.920833,129.579167" id="hour" stroke="#3F206E" stroke-width="6" stroke-linecap="round" sketch:type="MSShapeGroup"></path>
            </g>
        </g>
    </g>
</svg>