<?xml version="1.0" encoding="UTF-8" standalone="no"?>
<svg width="823px" height="81px" viewBox="0 0 823 81" version="1.1" xmlns="http://www.w3.org/2000/svg" xmlns:xlink="http://www.w3.org/1999/xlink" xmlns:sketch="http://www.bohemiancoding.com/sketch/ns">
    <!-- Generator: Sketch 3.2.2 (9983) - http://www.bohemiancoding.com/sketch -->
    <title>Line 3</title>
    <desc>Created with Sketch.</desc>
    <defs>
        <radialGradient cx="47.6127387%" cy="50%" fx="47.6127387%" fy="50%" r="52.3872613%" id="radialGradient-1">
            <stop stop-color="#3F206E" offset="0%"></stop>
            <stop stop-color="#FFFFFF" stop-opacity="0" offset="100%"></stop>
        </radialGradient>
    </defs>
    <g id="Page-1" stroke="none" stroke-width="1" fill="none" fill-rule="evenodd" sketch:type="MSPage">
        <g id="COMPANY" sketch:type="MSArtboardGroup" transform="translate(-166.000000, -436.000000)" stroke="url(#radialGradient-1)" stroke-width="3" stroke-linecap="round" stroke-linejoin="round">
            <g id="Line-4-+-Line-3" sketch:type="MSLayerGroup" transform="translate(-6.000000, 298.000000)">
                <path d="M173.5,199.5 C173.5,199.5 437.5,199.5 455.5,199.5 C473.5,199.5 480.857608,140 489.5,140 C500.350795,140 508,200.081635 521.5,200.081635 C535,200.081635 541.5,140.5 552.5,140.5 C563.5,140.5 571,199.5 584.5,199.5 C598,199.5 604,140.5 616,140.5 C628,140.5 633,199.5 647.5,199.5 C662,199.5 667,140.5 678.5,140.5 C690,140.5 698,199.5 713.5,199.5 L995,199.5 L994,0 L994,400" id="Line-3" sketch:type="MSShapeGroup"></path>
            </g>
        </g>
    </g>
</svg>