<?xml version="1.0" encoding="UTF-8" standalone="no"?>
<svg width="310px" height="1162px" viewBox="0 0 310 1162" version="1.1" xmlns="http://www.w3.org/2000/svg" xmlns:xlink="http://www.w3.org/1999/xlink" xmlns:sketch="http://www.bohemiancoding.com/sketch/ns">
    <!-- Generator: Sketch 3.2.2 (9983) - http://www.bohemiancoding.com/sketch -->
    <title>Shape 6 + Shape 7</title>
    <desc>Created with Sketch.</desc>
    <defs></defs>
    <g id="Page-1" stroke="none" stroke-width="1" fill="none" fill-rule="evenodd" sketch:type="MSPage">
        <g id="Shape-6-+-Shape-7" sketch:type="MSLayerGroup" transform="translate(2.000000, 1.000000)" stroke="#3F206E" stroke-width="3">
            <path d="M192.5,0.755460415 L274.303131,0.755460415 C278.975269,0.755460415 306.164676,1.16854032 306.164676,38.5472651 L306.164676,508.783665 L306.164676,726.156327 C306.164676,730.809109 308.558775,765.252 271.024547,765.252 L192.5,765.251981" id="Shape-6" sketch:type="MSShapeGroup"></path>
            <path d="M46.5075493,362.75546 L46.5075519,528.755459 C46.5075519,528.755459 46.5075493,552.755459 24.00755,552.755459 C24.0075493,552.755459 0.507550298,552.755459 0.00755025144,528.755459 C-0.492449795,504.755459 24.00755,506.003461 24.00755,506.003461 L46.5075503,506.003461 L169.615361,506.003461 C174.287499,506.003461 201.476906,506.41654 201.476906,543.795265 L201.476906,904.031665 L201.476906,1121.40433 C201.476906,1126.05711 203.871005,1160.5 166.336778,1160.5 L79.5075503,1160.49998" id="Shape-7" sketch:type="MSShapeGroup" transform="translate(100.753775, 761.627730) rotate(-180.000000) translate(-100.753775, -761.627730) "></path>
        </g>
    </g>
</svg>