<svg width="103px" height="103px" viewBox="0 0 103 103" version="1.1" xmlns="http://www.w3.org/2000/svg" xmlns:xlink="http://www.w3.org/1999/xlink">
    <g id="Page-1" stroke="none" stroke-width="1" fill="none" fill-rule="evenodd">
        <g id="mailbox" transform="translate(1.000000, 1.000000)">
            <path d="M63.715,30.795 L100.5,49.9999999 C100.5,49.9999999 102.94,61.4490018 94.9999995,73.5000018 C83.0179995,91.6840018 75.9999995,93.0000018 75.9999995,93.0000018 L45.763,77.109 L50.04,51.442" id="shadow_2_" fill="#E0DBE8"></path>
            <circle id="Oval" stroke="#3F206E" stroke-width="2" cx="50.6089973" cy="50.5189973" r="49.9979973"></circle>
            <g id="Group" transform="translate(31.000000, 23.000000)">
                <path d="M29.188,7.882 L24.357,7.882 L24.357,4.614 L26.003,4.614 C27.078,4.614 27.95,3.742 27.95,2.668 C27.95,1.594 27.078,0.723 26.003,0.723 L22.41,0.723 C21.336,0.723 20.465,1.594 20.465,2.668 L20.465,7.882 L7.927,7.882 C6.066,7.882 4.307,8.432 2.975,9.43 C1.33,10.661 0.424,12.521 0.424,14.666 L0.424,26.498 C0.424,27.572 1.296,28.443 2.369,28.443 L14.316,28.443 L14.316,51.503 C14.316,52.576 15.186,53.447 16.26,53.447 L21.819,53.447 C22.891,53.447 23.762,52.576 23.762,51.503 C23.762,50.428 22.891,49.557 21.819,49.557 L18.208,49.557 L18.208,28.443 L20.465,28.443 L24.356,28.443 L35.711,28.443 C36.785,28.443 37.655,27.571 37.655,26.498 L37.655,15.384 C37.656,11.037 34.095,7.882 29.188,7.882 L29.188,7.882 L29.188,7.882 Z" id="Shape" stroke="#3F206E" stroke-width="1.8" fill="#FFFFFF"></path>
                <path d="M11.537,24.551 L4.316,24.551 L4.316,14.666 C4.316,11.913 7.324,11.773 7.926,11.773 C9.109,11.773 10.057,12.073 10.671,12.639 C11.246,13.171 11.536,13.947 11.536,14.945 L11.536,24.551 L11.537,24.551 L11.537,24.551 Z" id="Shape" fill="#B2A6C5"></path>
                <path d="M33.765,24.551 L15.43,24.551 L15.43,14.945 C15.43,13.77 15.198,12.703 14.763,11.773 L20.465,11.773 L20.465,15.372 C20.465,16.447 21.335,17.317 22.41,17.317 C23.483,17.317 24.355,16.447 24.355,15.372 L24.355,11.773 L29.187,11.773 C31.463,11.773 33.762,12.889 33.762,15.383 L33.762,24.55 L33.765,24.55 L33.765,24.551 Z" id="Shape" fill="#8C79A8"></path>
            </g>
        </g>
    </g>
</svg>