<svg width="102px" height="102px" viewBox="0 0 102 102" version="1.1" xmlns="http://www.w3.org/2000/svg" xmlns:xlink="http://www.w3.org/1999/xlink">
    <g id="Page-1" stroke="none" stroke-width="1" fill="none" fill-rule="evenodd" >
        <g transform="translate(-568.000000, -1157.000000)">
            <g id="icon" transform="translate(569.000000, 1158.000000)" >
                <path d="M72.975,35.518 L98.038,62.376 C98.038,62.376 95.63,72.795 85.856,84.135 C77.258,94.107 63.997,97.401 63.997,97.401 L27.361,64.321 L70.923,34.303" id="Shape" fill="#E0DBE8"></path>
                <path d="M99.633,49.863 C99.633,77.208 77.465,99.374 50.123,99.374 C22.779,99.374 0.608,77.208 0.608,49.863 C0.608,22.517 22.779,0.351 50.123,0.351 C77.465,0.352 99.633,22.518 99.633,49.863 L99.633,49.863 Z" id="Shape" stroke="#3F206E" stroke-width="2"></path>
                <rect id="Rectangle-path" fill="#FFFFFF" x="27.836" y="35.832" width="44.635" height="28.316"></rect>
                <path d="M71.78,35.773 L50.124,53.928 L28.214,35.691 L71.78,35.773 Z" id="Shape" fill="#8C79A8"></path>
                <g id="Shape_17_2_" transform="translate(26.000000, 34.000000)" fill="#3F206E">
                    <path d="M48.022,4.166 C48.022,3.145 47.62,2.223 46.975,1.518 C46.965,1.504 46.961,1.488 46.952,1.475 C46.94,1.463 46.923,1.457 46.917,1.446 C46.183,0.68 45.151,0.196 44.005,0.196 L4.239,0.196 C3.094,0.196 2.063,0.68 1.332,1.446 C1.319,1.458 1.306,1.464 1.294,1.475 C1.28,1.488 1.277,1.506 1.268,1.518 C0.627,2.223 0.225,3.145 0.225,4.166 L0.225,27.561 C0.225,28.607 0.644,29.551 1.317,30.261 C1.33,30.277 1.333,30.294 1.347,30.309 C1.352,30.314 1.358,30.315 1.362,30.321 C2.092,31.065 3.113,31.531 4.24,31.531 L44.006,31.531 C45.135,31.531 46.154,31.065 46.887,30.321 C46.889,30.315 46.897,30.314 46.901,30.309 C46.919,30.295 46.919,30.277 46.932,30.262 C47.604,29.553 48.024,28.608 48.024,27.561 L48.024,4.166 L48.022,4.166 L48.022,4.166 Z M32.377,14.627 L46.152,3.206 C46.285,3.5 46.367,3.822 46.367,4.166 L46.367,27.561 C46.367,27.872 46.301,28.165 46.191,28.437 L32.377,14.627 L32.377,14.627 Z M44.004,1.832 C44.35,1.832 44.678,1.91 44.979,2.044 L24.124,19.334 L3.267,2.044 C3.567,1.91 3.894,1.832 4.239,1.832 L44.004,1.832 L44.004,1.832 Z M2.054,28.437 C1.941,28.165 1.877,27.87 1.877,27.56 L1.877,4.166 C1.877,3.823 1.958,3.5 2.091,3.206 L15.868,14.627 L2.054,28.437 L2.054,28.437 Z M4.238,29.895 C3.857,29.895 3.501,29.795 3.181,29.635 L17.14,15.682 L23.588,21.03 C23.744,21.157 23.93,21.223 24.123,21.223 C24.311,21.223 24.5,21.157 24.654,21.03 L31.103,15.682 L45.062,29.635 C44.742,29.795 44.386,29.895 44.003,29.895 L4.238,29.895 L4.238,29.895 Z" id="Shape"></path>
                </g>
            </g>
        </g>
    </g>
</svg>