<svg width="103px" height="103px" viewBox="0 0 103 103" version="1.1" xmlns="http://www.w3.org/2000/svg" xmlns:xlink="http://www.w3.org/1999/xlink">
    <g id="Page-1" stroke="none" stroke-width="1" fill="none" fill-rule="evenodd">
        <g id="marker" transform="translate(1.000000, 1.000000)">
            <path d="M57.078,25.294 L99.8890008,47.2539991 C99.8890008,47.2539991 104.22286,59.6426178 95.5000008,72.0000013 C83.5000008,89.0000013 78.5000008,91.5000013 78.5000008,91.5000013 L49.439,76.13 L53.156,47.254" id="shadow_4_" fill="#E0DBE8"></path>
            <ellipse id="Oval" stroke="#3F206E" stroke-width="2" cx="50.569001" cy="50.253" rx="50.012001" ry="50"></ellipse>
            <path d="M50.958,25.294 C41.722,25.294 34.301,32.616 34.301,41.571 C34.301,48.537 44.266,66.661 48.776,74.48 C49.722,76.113 52.194,76.113 53.14,74.48 C57.651,66.661 67.616,48.537 67.616,41.571 C67.617,32.616 60.196,25.294 50.958,25.294 L50.958,25.294 L50.958,25.294 Z" id="Shape" stroke="#3F206E" stroke-width="2" fill="#FFFFFF"></path>
            <path d="M50.958,50.456 C46.376,50.456 42.666,46.831 42.666,42.354 C42.666,37.875 46.376,34.251 50.958,34.251 C55.543,34.251 59.252,37.875 59.252,42.354 C59.252,46.831 55.543,50.456 50.958,50.456 L50.958,50.456 L50.958,50.456 Z" id="Shape" fill="#8C79A8"></path>
        </g>
    </g>
</svg>