<svg width="304px" height="304px" viewBox="0 0 304 304" version="1.1" xmlns="http://www.w3.org/2000/svg" xmlns:xlink="http://www.w3.org/1999/xlink">
    <g id="Page-1" stroke="none" stroke-width="1" fill="none" fill-rule="evenodd" sketch:type="MSPage">
        <g id="Portrait---6-Plus" sketch:type="MSArtboardGroup" transform="translate(-740.000000, -5217.000000)">
            <g id="Movellus-2" sketch:type="MSLayerGroup" transform="translate(742.000000, 5219.000000)">
                <path d="M150,124.850299 C154.793131,120.118526 146.944404,111.591928 150,105.08982 C158.152966,87.7408451 173.000002,67.5 173.000002,67.5 L294.626866,189.520958 C294.626866,189.520958 288.358209,228.143713 247.61194,262.724551 C206.865672,297.305389 158.955224,298.652695 158.955224,298.652695 L56.8656716,197.155689 C56.8656716,197.155689 129.671753,144.918321 150,124.850299 Z" id="Line" fill="#E0DBE8" sketch:type="MSShapeGroup"></path>
                <path d="M122.145911,226.792272 C131.783386,225.691149 130.819639,222.387779 127.928396,216.882162 C126.139189,213.475084 125.037154,212.477669 125.037154,206.972053 C125.037154,184.656688 169.36954,187.151833 169.978851,204.769806 C170.379175,216.344985 155.826378,220.12761 158.768317,223.488902 C161.659559,226.792272 179.007016,226.792272 179.007016,226.792272 L199.245713,226.792272 C199.245713,226.792272 205.991945,226.792272 205.991945,215.781039 L206.955693,122.185559 C206.955693,114.477696 204.06445,112.275449 197.318218,112.275449 L100.943466,112.275449 C100.943466,112.275449 91.3059903,112.275449 91.3059903,123.286682 L91.3059903,220.185532 L97.0884755,226.792272 L121.182163,226.792272 L122.145911,226.792272 Z" id="Line" stroke="#3F206E" stroke-width="6" stroke-linecap="round" fill="#B2A6C5" sketch:type="MSShapeGroup"></path>
                <path d="M122.145911,226.792272 C131.783386,225.691149 130.819639,222.387779 127.928396,216.882162 C126.139189,213.475084 125.037154,212.477669 125.037154,206.972053 C125.037154,184.656688 169.36954,187.151833 169.978851,204.769806 C170.379175,216.344985 155.826378,220.12761 158.768317,223.488902 C161.659559,226.792272 179.007016,226.792272 179.007016,226.792272 L199.245713,226.792272 C199.245713,226.792272 205.991945,226.792272 205.991945,215.781039 L206.955693,122.185559 C206.955693,114.477696 204.06445,112.275449 197.318218,112.275449 L100.943466,112.275449 C100.943466,112.275449 91.3059903,112.275449 91.3059903,123.286682 L91.3059903,220.185532 L97.0884755,226.792272 L121.182163,226.792272 L122.145911,226.792272 Z" id="Line-2" stroke="#3F206E" stroke-width="6" stroke-linecap="round" sketch:type="MSShapeGroup"></path>
                <g id="white-piece" transform="translate(51.044776, 62.874251)" stroke="#3F206E" stroke-width="6" fill="#FFFFFF" stroke-linecap="round" sketch:type="MSShapeGroup">
                    <path d="M141.454704,48.759461 L150.128432,48.759461 C154.947169,48.759461 155.910917,51.4854534 155.910917,56.5072967 C155.910917,65.3619661 155.647414,77.8158735 155.910917,83.0713049 C156.087747,86.5980858 156.788807,87.1891635 157.12954,87.4986396 C158.348163,88.6054733 160.020782,87.4986396 160.020782,87.4986396 C160.020782,87.4986396 169.369242,78.9133947 173.513247,76.4303029 C176.757973,74.48606 177.901289,74.2166355 182.186975,74.2166355 C191.82445,74.2166355 196.643188,87.4986396 196.643188,97.4601427 C196.643188,101.72856 195.822029,112.094747 192.788198,116.276315 C188.741766,121.853562 183.525999,124.793064 176.40449,120.70365 C159.057035,110.742147 140.927841,101.708018 112.797154,104.101145 C84.6664662,106.494271 71.4281708,123.956012 70.3922627,132.87882 C68.4647677,149.481325 80.7386101,156.122327 78.1022429,160.549662 C76.7427376,162.832722 72.0648824,163.870163 66.2823973,163.870163 L46.0436993,163.870163 C46.0436993,163.870163 40.2612142,162.763329 40.2612142,155.015494" id="Line-6"></path>
                    <path d="M40.2612144,155.015493 C40.2612144,155.015493 40.7709676,122.843961 38.8434728,120.630294 C36.9159778,118.416626 33.0609878,122.843961 33.0609878,122.843961 C33.0609878,122.843961 28.0215119,129.234431 23.8775066,132.292698 C20.6327811,134.687299 19.0354713,136.125965 14.7497848,136.125965 C5.11230956,136.125965 0.747566093,118.66053 0.747566093,106.391579 C0.747566093,101.13444 1.56872498,88.3670651 4.60255634,83.2168936 C8.64898788,76.3477523 12.0855578,74.0621114 18.6047751,79.6774479 C34.0247353,92.959452 47.5172013,106.4604 78.3571185,83.2168929 C78.9685868,82.7560401 91.5465783,71.9589599 88.9583415,55.3271071 C86.471366,39.345953 69.6555139,31.0501213 69.6833902,21.0152632 C69.74763,-2.10988942 106.059407,-3.9055892 119.288511,5.59294676 C123.651948,8.72590696 124.824357,16.4121415 124.107249,19.980971 C121.216006,34.3698088 111.634285,38.651247 110.160787,43.1519366 C108.687289,47.6526264 116.397269,48.7594601 116.397269,48.7594601 L142.418452,48.7594611" id="Line-7"></path>
                </g>
                <circle id="BADGE-4" stroke="#3F206E" stroke-width="3" sketch:type="MSShapeGroup" cx="150" cy="150" r="150"></circle>
            </g>
        </g>
    </g>
</svg>