<svg version="1.1" id="Layer_1" xmlns="http://www.w3.org/2000/svg" xmlns:xlink="http://www.w3.org/1999/xlink" x="0px" y="0px"
	 width="623.31px" height="148.683px" viewBox="0 0 623.31 148.683" enable-background="new 0 0 623.31 148.683"
	 xml:space="preserve">
	<path fill-rule="evenodd" clip-rule="evenodd" fill="#FFFFFF" d="M89.422,0.874h13.668l11.265,33.923l11.267-33.923h13.617v44.207
	h-9.12l0.742-34.416l-11.326,34.416h-9.86L97.984,10.296l0.92,34.785h-9.482V0.874L89.422,0.874z M170.318,16.328
	c-0.279,1.11-0.497,2.226-0.617,3.354c-0.121,1.126-0.182,2.248-0.182,3.352c0,1.152,0.072,2.293,0.219,3.419
	c0.144,1.13,0.339,2.232,0.58,3.295c0.45,1.89,1.201,3.535,2.256,4.929c1.043,1.394,2.511,2.417,4.39,3.08
	c0.704,0.241,1.442,0.426,2.22,0.554c0.776,0.12,1.564,0.181,2.341,0.181c0.787,0,1.564-0.061,2.34-0.181
	c0.789-0.128,1.516-0.313,2.22-0.554c1.891-0.663,3.37-1.687,4.427-3.08c1.067-1.394,1.806-3.039,2.22-4.929
	c0.254-1.063,0.447-2.165,0.579-3.295c0.147-1.126,0.219-2.267,0.219-3.419c0-1.104-0.071-2.226-0.219-3.352
	c-0.132-1.129-0.325-2.226-0.579-3.295c-0.414-1.882-1.152-3.539-2.22-4.959c-1.057-1.412-2.536-2.429-4.427-3.042
	c-0.704-0.249-1.431-0.43-2.22-0.558c-0.775-0.12-1.553-0.185-2.34-0.185c-0.776,0-1.564,0.064-2.341,0.185
	c-0.777,0.128-1.516,0.309-2.22,0.558c-1.879,0.655-3.334,1.68-4.364,3.08c-1.031,1.39-1.784,3.039-2.281,4.921V16.328
	L170.318,16.328z M160.715,13.188c1.067-3.242,2.645-5.882,4.716-7.911c2.063-2.033,4.792-3.476,8.15-4.342
	c1.237-0.286,2.51-0.516,3.82-0.674c1.31-0.162,2.632-0.248,3.942-0.248c1.393-0.042,2.813,0.019,4.243,0.181
	c1.442,0.173,2.813,0.433,4.135,0.802c3.273,0.824,5.966,2.263,8.065,4.312c2.084,2.056,3.624,4.699,4.607,7.941
	c0.412,1.479,0.729,3.038,0.958,4.677c0.229,1.648,0.339,3.287,0.339,4.929c0,1.766-0.109,3.49-0.303,5.174
	c-0.206,1.679-0.533,3.283-0.994,4.801c-0.983,3.328-2.534,6.002-4.67,8.031c-2.146,2.033-4.886,3.438-8.258,4.222
	c-1.31,0.327-2.667,0.564-4.063,0.704c-1.395,0.146-2.813,0.218-4.243,0.218c-1.274,0-2.548-0.079-3.82-0.248
	c-1.272-0.166-2.522-0.388-3.76-0.674c-3.323-0.783-6.051-2.188-8.185-4.222c-2.135-2.029-3.699-4.703-4.682-8.031
	c-0.413-1.438-0.729-2.997-0.959-4.681c-0.218-1.68-0.339-3.385-0.339-5.113c0-1.721,0.109-3.431,0.316-5.136
	c0.205-1.702,0.533-3.254,0.981-4.65V13.188L160.715,13.188z M236.628,45.081L217.42,0.874h10.464l13.304,32.937l13.604-32.937
	h9.909l-18.468,44.207H236.628L236.628,45.081z M299.25,8.567c-3.407,0.041-5.955,0.96-7.64,2.741
	c-1.687,1.781-2.632,4.319-2.839,7.603l25.732-0.061v7.696h-25.793c0,1.556,0.183,3.062,0.521,4.496
	c0.353,1.431,1.067,2.749,2.135,3.936c0.935,1.11,2.062,1.803,3.346,2.063c1.299,0.267,2.621,0.406,3.979,0.406
	c0.085,0,0.171,0,0.28,0c0.097,0,0.192,0,0.278,0l15.254-0.061v7.693h-15.69c-2.512,0-4.912-0.223-7.241-0.678
	c-2.315-0.456-4.499-1.499-6.548-3.137c-2.462-2.019-4.194-4.466-5.177-7.365c-0.983-2.892-1.518-5.852-1.601-8.895
	c-0.038-0.655-0.049-1.287-0.038-1.905c0.024-0.617,0.061-1.231,0.098-1.849c0.448-6.981,2.354-12.109,5.699-15.396
	c3.348-3.28,8.369-4.922,15.049-4.922l15.449-0.061v7.693H299.25L299.25,8.567z M354.158,45.081c-2.788,0-5.407-0.219-7.846-0.648
	c-2.449-0.429-4.693-1.735-6.742-3.912c-1.77-1.841-2.873-3.916-3.322-6.213c-0.462-2.301-0.68-4.657-0.68-7.083V0.874h9.289v24.258
	c-0.036,4.107,0.412,7.248,1.359,9.417c0.945,2.177,3.855,3.269,8.743,3.269l10.961-0.061v7.324H354.158L354.158,45.081z
	 M402.363,45.081c-2.79,0-5.409-0.219-7.848-0.648c-2.449-0.429-4.691-1.735-6.741-3.912c-1.772-1.841-2.875-3.916-3.323-6.213
	c-0.448-2.301-0.678-4.657-0.678-7.083V0.874h9.301v24.258c-0.049,4.107,0.41,7.248,1.344,9.417
	c0.947,2.177,3.871,3.269,8.743,3.269l10.966-0.061v7.324H402.363L402.363,45.081z M442.138,0.874v26.472
	c0,3.742,0.655,6.529,1.977,8.374c1.311,1.849,3.977,2.771,8.004,2.771c4.014,0,6.67-0.923,7.968-2.771
	c1.297-1.845,1.94-4.612,1.94-8.313V0.874h9.288v26.72c0,0.535,0,1.069,0,1.601c0,0.535-0.012,1.051-0.061,1.54
	c-0.036,1.559-0.231,3.088-0.582,4.59c-0.352,1.491-0.994,2.899-1.941,4.214c-1.309,1.808-3.006,3.145-5.081,4.003
	c-2.073,0.862-4.206,1.412-6.428,1.66c-0.858,0.124-1.721,0.207-2.581,0.249c-0.86,0.045-1.711,0.063-2.522,0.063
	c-0.789,0-1.601-0.019-2.438-0.063c-0.836-0.042-1.698-0.125-2.557-0.249c-2.256-0.203-4.439-0.738-6.525-1.601
	c-2.098-0.858-3.82-2.21-5.178-4.063c-0.934-1.314-1.578-2.723-1.905-4.214c-0.327-1.502-0.509-3.031-0.558-4.59
	c-0.035-0.489-0.06-1.005-0.06-1.54c0-0.531,0-1.047,0-1.54V0.874H442.138L442.138,0.874z M531.657,8.756h-22.97
	c-2.013,0.041-3.697,0.463-5.079,1.261c-1.371,0.803-2.063,2.327-2.063,4.583c0,1.729,0.584,2.96,1.758,3.701
	c1.166,0.734,2.536,1.104,4.102,1.104l12.307-0.061c0.45,0.042,0.923,0.061,1.42,0.061c0.485,0,0.982,0.022,1.467,0.063
	c1.443,0.079,2.861,0.316,4.257,0.704c1.395,0.396,2.618,1.104,3.699,2.128c0.98,0.903,1.71,1.992,2.206,3.265
	c0.498,1.272,0.801,2.583,0.935,3.938c0.035,0.407,0.06,0.81,0.085,1.201c0.023,0.388,0.035,0.791,0.035,1.201
	c-0.085,5.129-1.502,8.611-4.257,10.435c-2.753,1.826-6.485,2.741-11.204,2.741h-24.75v-7.882h23.271
	c2.062,0.042,3.833-0.286,5.335-0.99c1.491-0.688,2.098-2.271,1.808-4.74c-0.207-1.928-0.922-3.118-2.159-3.566
	c-1.224-0.451-2.679-0.696-4.364-0.737l-10.963-0.061c-4.549,0.034-8.161-0.874-10.805-2.741s-3.94-5.245-3.905-10.133
	c0.085-5.129,1.505-8.627,4.279-10.494c2.766-1.868,6.515-2.802,11.23-2.802l24.327-0.061V8.756z"/>
	<path fill-rule="evenodd" clip-rule="evenodd" fill="#FFFFFF" d="M162.109,103.452l4.232,1.3c-0.655,2.387-1.734,4.156-3.25,5.324
	c-1.517,1.148-3.432,1.731-5.761,1.731c-2.873,0-5.237-0.982-7.094-2.952c-1.856-1.965-2.79-4.657-2.79-8.069
	c0-3.606,0.934-6.416,2.801-8.415c1.856-1.996,4.319-2.997,7.351-2.997c2.654,0,4.814,0.786,6.463,2.356
	c0.994,0.931,1.734,2.264,2.22,4.003l-4.33,1.031c-0.254-1.122-0.787-2.014-1.6-2.662c-0.825-0.655-1.808-0.975-2.972-0.975
	c-1.6,0-2.91,0.576-3.916,1.731c-0.994,1.148-1.504,3.017-1.504,5.6c0,2.733,0.497,4.691,1.478,5.852
	c0.994,1.163,2.282,1.743,3.857,1.743c1.164,0,2.171-0.369,3.007-1.106C161.138,106.205,161.744,105.042,162.109,103.452
	L162.109,103.452z M196.864,111.442V89.769h4.391v21.674H196.864L196.864,111.442z M232.335,111.442V89.769h9.216
	c2.317,0,4.001,0.2,5.057,0.588c1.057,0.38,1.893,1.08,2.521,2.074c0.633,0.994,0.947,2.132,0.947,3.412
	c0,1.63-0.473,2.971-1.432,4.032c-0.946,1.063-2.377,1.721-4.268,2c0.945,0.554,1.721,1.159,2.327,1.822
	c0.619,0.659,1.443,1.834,2.487,3.521l2.643,4.225h-5.239l-3.127-4.732c-1.128-1.68-1.903-2.734-2.318-3.179
	c-0.423-0.429-0.86-0.734-1.321-0.896c-0.473-0.166-1.199-0.245-2.218-0.245h-0.885v9.052H232.335L232.335,111.442z M236.726,98.941
	h3.238c2.097,0,3.405-0.09,3.927-0.268c0.521-0.173,0.935-0.485,1.225-0.922c0.305-0.43,0.449-0.976,0.449-1.623
	c0-0.734-0.193-1.322-0.581-1.77c-0.388-0.456-0.935-0.734-1.649-0.852c-0.353-0.049-1.42-0.079-3.189-0.079h-3.419V98.941
	L236.726,98.941z M294.969,103.452l4.244,1.3c-0.655,2.387-1.734,4.156-3.25,5.324c-1.516,1.148-3.432,1.731-5.761,1.731
	c-2.873,0-5.237-0.982-7.105-2.952c-1.843-1.965-2.776-4.657-2.776-8.069c0-3.606,0.934-6.416,2.801-8.415
	c1.854-1.996,4.306-2.997,7.349-2.997c2.656,0,4.803,0.786,6.463,2.356c0.983,0.931,1.723,2.264,2.22,4.003l-4.33,1.031
	c-0.254-1.122-0.787-2.014-1.601-2.662c-0.824-0.655-1.807-0.975-2.971-0.975c-1.611,0-2.91,0.576-3.916,1.731
	c-1.007,1.148-1.504,3.017-1.504,5.6c0,2.733,0.497,4.691,1.479,5.852c0.994,1.163,2.269,1.743,3.855,1.743
	c1.166,0,2.16-0.369,2.996-1.106C294.011,106.205,294.617,105.042,294.969,103.452L294.969,103.452z M329.883,89.769h4.389v11.745
	c0,1.867,0.062,3.072,0.157,3.626c0.194,0.885,0.631,1.604,1.322,2.139c0.702,0.542,1.662,0.806,2.875,0.806
	c1.224,0,2.146-0.252,2.774-0.765c0.62-0.508,0.994-1.126,1.13-1.871c0.12-0.742,0.192-1.966,0.192-3.683V89.769h4.391v11.398
	c0,2.602-0.121,4.443-0.363,5.517c-0.232,1.08-0.669,1.991-1.298,2.722c-0.631,0.746-1.479,1.33-2.547,1.773
	c-1.055,0.441-2.438,0.659-4.159,0.659c-2.062,0-3.626-0.237-4.693-0.715c-1.055-0.479-1.903-1.096-2.521-1.868
	c-0.619-0.768-1.021-1.563-1.226-2.406c-0.278-1.242-0.423-3.08-0.423-5.505V89.769L329.883,89.769z M378.509,111.442V89.769h4.378
	v21.674H378.509L378.509,111.442z M418.855,111.442V93.429h-6.428v-3.66h17.209v3.66h-6.393v18.014H418.855L418.855,111.442z
	 M458.23,104.424l4.267-0.426c0.256,1.432,0.777,2.475,1.554,3.141c0.789,0.674,1.843,1.006,3.164,1.006
	c1.408,0,2.463-0.294,3.179-0.889c0.715-0.595,1.065-1.292,1.065-2.094c0-0.516-0.145-0.945-0.448-1.311
	c-0.29-0.357-0.824-0.67-1.563-0.938c-0.523-0.177-1.676-0.493-3.494-0.945c-2.341-0.583-3.977-1.307-4.924-2.153
	c-1.321-1.194-1.987-2.655-1.987-4.38c0-1.103,0.313-2.139,0.934-3.103c0.631-0.964,1.526-1.698,2.703-2.202
	c1.177-0.501,2.597-0.757,4.257-0.757c2.704,0,4.754,0.602,6.123,1.807c1.37,1.205,2.086,2.813,2.159,4.82l-4.389,0.15
	c-0.195-1.114-0.595-1.92-1.201-2.406c-0.606-0.489-1.528-0.738-2.752-0.738c-1.262,0-2.245,0.264-2.96,0.787
	c-0.46,0.339-0.691,0.787-0.691,1.352c0,0.517,0.219,0.957,0.655,1.322c0.544,0.467,1.879,0.952,4.014,1.457
	c2.122,0.497,3.687,1.024,4.705,1.555c1.019,0.543,1.808,1.27,2.39,2.211c0.57,0.934,0.86,2.078,0.86,3.449
	c0,1.242-0.339,2.406-1.032,3.49c-0.688,1.081-1.672,1.895-2.922,2.414c-1.272,0.534-2.837,0.794-4.729,0.794
	c-2.741,0-4.838-0.629-6.305-1.897C459.395,108.679,458.521,106.838,458.23,104.424z"/>
<rect y="143.637" fill-rule="evenodd" clip-rule="evenodd" fill="#FFFFFF" width="623.31" height="5.046"/>
</svg>
