<svg width="334px" height="336px" viewBox="-2 -2 336 338" version="1.1" xmlns="http://www.w3.org/2000/svg" xmlns:xlink="http://www.w3.org/1999/xlink">
    <g id="Page-1" stroke="none" stroke-width="1" fill="none" fill-rule="evenodd" sketch:type="MSPage">
        <g id="MOVELLUS-DESKTOP-2" sketch:type="MSArtboardGroup" transform="translate(-649.000000, -3891.000000)">
            <g id="Movellus" sketch:type="MSLayerGroup" transform="translate(649.000000, 543.000000)">
                <g id="graph" transform="translate(0.000000, 3348.500000)" sketch:type="MSShapeGroup">
                    <ellipse id="BASE-BADGE" stroke="#523C64" stroke-width="3" fill="#FFFFFF" cx="167.001488" cy="167.5" rx="167.001488" ry="167.5"></ellipse>
                    <path d="M239.168336,95.5817175 L330.014888,186.499999 C330.014888,186.499999 326.525305,238.000007 287.641376,278.500007 C247.261912,326.500007 185.446428,331.000007 185.446428,331.000007 L94.8346401,239.418283 L240.093552,112.285319 L239.630944,98.365651 L239.168336,95.5817175 Z" id="Line" fill="#E5E2E8"></path>
                    <path d="M120.740688,240.810249 L120.740688,171.6759 L93.4468161,184.66759 L93.4468161,234.314404 C93.4468161,234.314404 94.3169867,237.507117 95.2972481,238.490305 C96.4758241,239.672399 99.9233281,240.810249 99.9233281,240.810249 L120.740688,240.810249 Z" id="Line" fill="#D1CADC"></path>
                    <path d="M151.272815,240.810249 L151.272815,151.260388 L120.740688,171.6759 C120.740688,171.6759 119.198131,239.827062 120.27808,240.810249 C121.576511,241.992343 151.272815,240.810249 151.272815,240.810249 Z" id="Line-5" fill="#C1B8D1"></path>
                    <path d="M182.267552,240.810249 L182.267552,141.980609 L151.272816,151.724377 L151.272816,240.810249 L182.267552,240.810249 Z" id="Line-12" fill="#8C79A8"></path>
                    <path d="M212.79968,240.810249 L212.79968,114.141274 L182.267552,141.980609 L182.267552,240.810249 L212.79968,240.810249 Z" id="Line-13" fill="#654D8B"></path>
                    <path d="M234.079648,240.810249 C235.661793,240.810249 240.093552,234.527942 240.093552,231.530471 L240.093552,103.469529 L212.79968,113.677285 L212.79968,240.810249 L234.079648,240.810249 Z" id="Line-14" fill="#3F206E"></path>
                    <rect id="Rectangle-457" stroke="#523C64" stroke-width="3" x="91.5963841" y="91.8698061" width="149.884992" height="150.33241" rx="10"></rect>
                    <path d="M93.9094241,184.203601 L121.665904,171.211911 L152.198032,150.796399 L182.73016,141.980609 L213.724896,113.213296 L240.093552,103.469529" id="Line" stroke="#635074" stroke-linecap="square"></path>
                    <ellipse id="Oval-117" stroke="#523C64" stroke-width="3" fill="#FFFFFF" cx="121.203296" cy="171.6759" rx="4.62608" ry="4.6398892"></ellipse>
                    <ellipse id="Oval-118" stroke="#523C64" stroke-width="3" fill="#FFFFFF" cx="151.735424" cy="151.260388" rx="4.62608" ry="4.6398892"></ellipse>
                    <ellipse id="Oval-119" stroke="#523C64" stroke-width="3" fill="#FFFFFF" cx="182.267552" cy="141.980609" rx="4.62608" ry="4.6398892"></ellipse>
                    <ellipse id="Oval-120" stroke="#523C64" stroke-width="3" fill="#FFFFFF" cx="212.79968" cy="114.141274" rx="4.62608" ry="4.6398892"></ellipse>
                </g>
            </g>
        </g>
    </g>
</svg>