<svg width="297px" height="680px" viewBox="-2 0 300 680" version="1.1" xmlns="http://www.w3.org/2000/svg" xmlns:xlink="http://www.w3.org/1999/xlink" xmlns:sketch="http://www.bohemiancoding.com/sketch/love-sketch">
    <g id="Page-1" stroke="none" stroke-width="1" fill="none" fill-rule="evenodd" sketch:type="MSPage">
        <path d="M74.401,678.205 L67.003,678.205 C63.286,678.205 41.655,677.873 40.454,645.589 L40.454,551.19 L40.454,485.939 C40.454,485.939 40.454,463.988 20.475,463.988 C20.475,463.988 0.991,463.988 0.991,483.474 C0.991,483.474 0.991,503.718 20.475,503.718 L42.157,503.718 L170.881,503.719 L265.28,503.719 C276.59032,503.719 294.500003,503.719001 294.500003,470.000007 C294.500003,470.000007 296.000003,180.942016 296.000003,145.000007 C296.000003,109.057998 265.280001,109.057998 265.280001,109.057998 L129.174,109.058 C129.174,109.058 112.895,110.03 112.895,125.584 C112.895,141.137 126.707,143.343 129.174,143.343 C148.413,142.85 147.672,125.584 147.672,125.584 L147.672,109.058 L148.413,0.762" id="Shape-10" stroke="#3F206E" stroke-width="3" sketch:type="MSShapeGroup"></path>
    </g>
</svg>