<?xml version="1.0" encoding="UTF-8" standalone="no"?>
<svg width="297px" height="790px" viewBox="0 0 297 790" version="1.1" xmlns="http://www.w3.org/2000/svg" xmlns:xlink="http://www.w3.org/1999/xlink" xmlns:sketch="http://www.bohemiancoding.com/sketch/ns">
    <!-- Generator: Sketch 3.2.2 (9983) - http://www.bohemiancoding.com/sketch -->
    <title>Shape 10</title>
    <desc>Created with Sketch.</desc>
    <defs></defs>
    <g id="Page-1" stroke="none" stroke-width="1" fill="none" fill-rule="evenodd" sketch:type="MSPage">
        <path d="M133.500002,787.985999 L67.6220027,787.985976 C63.9050027,787.985976 42.2740027,787.653976 41.0730027,755.369976 L41.0730027,660.970976 L41.0730027,595.719976 C41.0730027,595.719976 41.0730027,573.768976 21.0940027,573.768976 C21.0940027,573.768976 1.61000269,573.768976 1.61000269,593.254976 C1.61000269,593.254976 1.61000269,613.498976 21.0940027,613.498976 L42.7760027,613.498976 L171.500003,613.499976 L265.899003,613.499976 C277.209322,613.499976 295.119005,613.499977 295.119005,579.780983 C295.119005,579.780983 295.000003,180.942016 295.000003,145.000007 C295.000003,109.057998 264.280001,109.057998 264.280001,109.057998 L128.174,109.058 C128.174,109.058 111.895,110.03 111.895,125.584 C111.895,141.137 125.707,143.343 128.174,143.343 C147.413,142.85 146.672,125.584 146.672,125.584 L146.672,109.058 L147.413,0.762" id="Shape-10" stroke="#3F206E" stroke-width="3" sketch:type="MSShapeGroup"></path>
    </g>
</svg>