<svg width="900px" height="1343px" viewBox="0 0 926 1343" version="1.1" xmlns="http://www.w3.org/2000/svg" xmlns:xlink="http://www.w3.org/1999/xlink" xmlns:sketch="http://www.bohemiancoding.com/sketch/ns">
    <g id="Page-1" stroke="none" stroke-width="1" fill="none" fill-rule="evenodd" sketch:type="MSPage">
        <g id="MOVELLUS-DESKTOP-2" sketch:type="MSArtboardGroup" transform="translate(-684.000000, -875.000000)" stroke="#3F206E" stroke-width="2" stroke-linecap="square">
            <path d="M1145.61244,877 L1145.61244,1145.26252 L1145.61244,1176.25147 C1145.61244,1176.25147 1147,1208.62798 1110.92332,1209.55302 C1106.2981,1209.55302 1080.39689,1205.41734 1080.39689,1176.25147 C1080.39689,1147.08559 1110.92332,1145.26252 1110.92332,1145.26252 L1568.35717,1145.26252 C1568.35717,1145.26252 1607.6715,1143.41244 1607.6715,1176.25147 L1607.6715,1234.52919 C1607.6715,1234.52919 1603.75896,1269.46845 1568.35717,1269.46845 C1568.35717,1269.46845 1409.23763,1269.46845 1409.23763,1269.46846 C1349.23186,1269.46845 1349.23186,1318.2456 1349.23187,1329.47422 L1349.23186,1827.48187 C1349.23186,1827.48187 1349.23186,1885.33501 1289.52859,1885.33505 L763.525884,1885.33505 C763.525884,1885.33505 722.867703,1885.33501 722.867701,1885.33501 C686.328497,1885.33501 686.328498,1847.37029 686.328497,1847.37029 C686.328498,1810.83109 722.867703,1810.83109 722.867703,1810.83109 C760.331952,1810.83109 760.331952,1851.99551 760.331952,1851.99551 L760.331952,2216" id="Line" sketch:type="MSShapeGroup"></path>
        </g>
    </g>
</svg>