<svg width="103px" height="103px" viewBox="0 0 103 103" version="1.1" xmlns="http://www.w3.org/2000/svg" xmlns:xlink="http://www.w3.org/1999/xlink">
    <g id="Page-1" stroke="none" stroke-width="1" fill="none" fill-rule="evenodd">
        <g id="phone" transform="translate(1.000000, 1.000000)">
            <path d="M63.801,26.743 L100.500002,46 C100.500002,46 101.440001,57.5 96.5000019,71.5 C91.5600033,85.5 75.0000019,94.0000038 75.0000019,94.0000038 L41.059,76.888 L56.821,52.994" id="shadow_1_" fill="#E0DBE8"></path>
            <ellipse id="Oval" stroke="#3F206E" stroke-width="2" cx="50.8429973" cy="50.1650049" rx="49.9979973" ry="49.9980049"></ellipse>
            <path d="M56.075,53.554 C58.809,48.196 61.158,42.25 58.703,40.998 C55.191,39.209 52.349,38.322 55.157,30.951 C57.958,23.579 62.545,27.051 65.945,28.79 C69.876,30.79 70.654,42.755 63.269,57.225 C55.891,71.693 45.745,78.087 41.825,76.084 C38.422,74.348 32.915,72.671 37.235,66.073 C41.555,59.477 43.941,61.257 47.46,63.049 C49.908,64.304 53.339,58.91 56.075,53.554 L56.075,53.554 L56.075,53.554 Z" id="Shape" stroke="#3F206E" stroke-width="2" fill="#FFFFFF"></path>
            <path d="M43.878,36.273 C40.983,37.759 38.271,40.287 36.563,43.673 C34.853,47.052 34.421,50.737 34.946,53.952 C34.946,53.952 35.16,55.236 36.301,55.813 C37.466,56.405 39,55.944 39.624,54.709 C39.993,53.977 39.853,53.165 39.853,53.165 C39.64,51.562 39.374,49.128 40.997,45.913 C42.629,42.694 44.744,41.469 46.159,40.692 C46.159,40.692 46.892,40.319 47.264,39.591 C47.888,38.356 47.352,36.847 46.179,36.254 C45.04,35.68 43.878,36.273 43.878,36.273 L43.878,36.273 L43.878,36.273 Z" id="Shape" fill="#B2A6C5"></path>
            <path d="M33.002,41.871 C35.979,35.978 40.398,32.427 44.682,31.703 C44.682,31.703 46.045,31.492 46.611,30.372 C47.25,29.106 46.7,27.619 45.519,27.025 C44.755,26.637 43.786,26.819 43.786,26.819 C40.095,27.471 33.21,30.442 28.564,39.627 C23.922,48.815 25.615,56.123 27.279,59.482 C27.279,59.482 27.714,60.371 28.471,60.753 C29.655,61.353 31.176,60.913 31.81,59.649 C32.378,58.528 31.74,57.307 31.74,57.307 C29.782,53.426 30.022,47.767 33.002,41.871 L33.002,41.871 L33.002,41.871 Z" id="Shape" fill="#8C79A8"></path>
        </g>
    </g>
</svg>