<?xml version="1.0" encoding="UTF-8" standalone="no"?>
<svg width="340px" height="339px" viewBox="0 0 340 339" version="1.1" xmlns="http://www.w3.org/2000/svg" xmlns:xlink="http://www.w3.org/1999/xlink" xmlns:sketch="http://www.bohemiancoding.com/sketch/ns">
    <!-- Generator: Sketch 3.2.2 (9983) - http://www.bohemiancoding.com/sketch -->
    <title>Line 6 + Group</title>
    <desc>Created with Sketch.</desc>
    <defs></defs>
    <g id="Page-1" stroke="none" stroke-width="1" fill="none" fill-rule="evenodd" sketch:type="MSPage">
        <g id="MOVELLUS-DESKTOP-2" sketch:type="MSArtboardGroup" transform="translate(-979.000000, -5183.000000)">
            <g id="Line-6-+-Group" sketch:type="MSLayerGroup" transform="translate(980.000000, 5184.000000)">
                <g id="Group" sketch:type="MSShapeGroup">
                    <path d="M257.227983,110.591966 L333.999997,189.500001 C333.999997,189.500001 333.563053,229.87738 299.999997,272.000001 C266.43694,314.122623 213.499997,329.000001 213.499997,329.000001 L133.763882,251.826638 L257.227983,110.591966 Z" id="Line-13" fill="#E0DBE8"></path>
                    <path d="M80.0676796,111.114519 C137.925781,111.114519 168.997725,79 168.997725,79 C168.997725,79 195.783884,111.114519 255.784879,111.114519 C255.784879,229.606021 167.926279,277.224101 167.926279,277.224101 C167.926279,277.224101 80.0676796,230.713418 80.0676796,111.114519 Z" id="Line-10" stroke="#3F206E" stroke-width="3" stroke-linecap="square" stroke-linejoin="round" fill="#FFFFFF"></path>
                    <path d="M90.4004402,120.527396 C139.157943,120.527395 167.926281,92.627907 167.926281,92.627907 L167.926281,266.073996 C167.926281,266.073996 90.4004402,215.89852 90.4004402,120.527396 Z" id="Line-11" opacity="0" fill="#A89DB1"></path>
                    <path d="M248,118.499999 C201,118.5 169,91 169,91 L169,267.500003 C169,267.500003 248,213.773315 248,118.499999 Z" id="Line-12" fill="#B2A6C5"></path>
                    <g id="Line-+-Line-3" transform="translate(130.965861, 144.661734)" stroke-linecap="round">
                        <path d="M1.73821014,33.9118835 L23.8911045,56.7888735" id="Line-5" stroke="#FFFFFF" stroke-width="12"></path>
                        <path d="M1.73821014,33.9118835 L23.8911045,56.7888735" id="Line" stroke="#3F206E" stroke-width="4"></path>
                        <path d="M23.8911045,56.7888735 L78.4249419,0.472529653" id="Line" stroke="#3F206E" stroke-width="4"></path>
                    </g>
                    <g id="Group-4" transform="translate(0.499999, 0.840266)" stroke="#523C64" stroke-width="3" fill="#FFFFFF">
                        <path d="M168.5,0.25 C75.4400197,0.25 5.68434189e-14,75.2423044 0,167.75 C0,260.257696 75.4400197,335.25 168.5,335.25 C261.55998,335.25 337,260.257696 337,167.75 C337,75.2423044 261.55998,0.25 168.5,0.25 Z M168.5,0.25 C75.4400197,0.25 5.68434189e-14,75.2423044 0,167.75 C0,260.257696 75.4400197,335.25 168.5,335.25 C261.55998,335.25 337,260.257696 337,167.75 C337,75.2423044 261.55998,0.25 168.5,0.25 Z" id="BADGE-13"></path>
                    </g>
                </g>
            </g>
        </g>
    </g>
</svg>