<svg width="207px" height="207px" viewBox="978 597 207 207" version="1.1" xmlns="http://www.w3.org/2000/svg" xmlns:xlink="http://www.w3.org/1999/xlink">
    <!-- Generator: Sketch 40.3 (33839) - http://www.bohemiancoding.com/sketch -->
    <desc>Created with Sketch.</desc>
    <defs></defs>
    <g id="Page-1" stroke="none" stroke-width="1" fill="none" fill-rule="evenodd" transform="translate(981.000000, 600.000000)">
        <g id="Group-14">
            <path d="M200,100 C200,155.228286 155.228286,200 100,200 C44.7714286,200 0,155.228286 0,100 C0,44.7714286 44.7714286,0 100,0 C155.228286,0 200,44.7714286 200,100" id="Fill-1" fill="#FFFFFF"></path>
            <path d="M112.777771,40 L196.1112,122.777714 C196.1112,122.777714 193.888914,146.666857 168.333486,171.666857 C142.777771,196.666857 114.444343,197.777714 114.444343,197.777714 L75.0000571,158.333429" id="Fill-3" fill="#E0DBE8"></path>
            <path d="M92.7463714,38.8888 L109.3978,38.8888 C112.466371,38.8888 114.953514,41.3768 114.953514,44.4445143 L114.953514,61.1333714 C114.953514,64.2013714 112.466371,66.6890857 109.3978,66.6890857 L92.7463714,66.6890857 C89.6778,66.6890857 87.1906571,64.2013714 87.1906571,61.1333714 L87.1906571,44.4445143 C87.1906571,41.3768 89.6778,38.8888 92.7463714,38.8888" id="Fill-4" fill="#FFFFFF"></path>
            <path d="M92.7463714,38.8888 L109.3978,38.8888 C112.466371,38.8888 114.953514,41.3768 114.953514,44.4445143 L114.953514,61.1333714 C114.953514,64.2013714 112.466371,66.6890857 109.3978,66.6890857 L92.7463714,66.6890857 C89.6778,66.6890857 87.1906571,64.2013714 87.1906571,61.1333714 L87.1906571,44.4445143 C87.1906571,41.3768 89.6778,38.8888 92.7463714,38.8888 Z" id="Stroke-5" stroke="#523C64" stroke-width="5"></path>
            <path d="M82.2222286,52.7890571 L119.433657,52.7890571 C125.570229,52.7890571 130.544514,57.7636286 130.544514,63.9002 L130.544514,149.999914 C130.544514,156.136486 125.570229,161.111057 119.433657,161.111057 L82.2222286,161.111057 C76.0856571,161.111057 71.1110857,156.136486 71.1110857,149.999914 L71.1110857,63.9002 C71.1110857,57.7636286 76.0856571,52.7890571 82.2222286,52.7890571" id="Fill-6" fill="#FFFFFF"></path>
            <path d="M82.2222286,52.7890571 L119.433657,52.7890571 C125.570229,52.7890571 130.544514,57.7636286 130.544514,63.9002 L130.544514,149.999914 C130.544514,156.136486 125.570229,161.111057 119.433657,161.111057 L82.2222286,161.111057 C76.0856571,161.111057 71.1110857,156.136486 71.1110857,149.999914 L71.1110857,63.9002 C71.1110857,57.7636286 76.0856571,52.7890571 82.2222286,52.7890571 Z" id="Stroke-7" stroke="#523C64" stroke-width="5"></path>
            <path d="M123.333343,68.8992857 L78.3333429,77.7778571 L78.3333429,65.5784286 C78.3333429,62.5087143 80.8164857,60.0207143 83.8844857,60.0207143 L117.781629,60.0207143 C120.847343,60.0207143 123.333343,62.5055714 123.333343,65.5807143 L123.333343,68.8992857 Z" id="Fill-8" fill="#3F1F6E"></path>
            <polygon id="Fill-9" fill="#654D8B" points="123.333343 85.5555143 78.3333429 94.4443714 78.3333429 77.7778 123.333343 68.8889429"></polygon>
            <polygon id="Fill-10" fill="#8C79A8" points="123.333343 102.777629 78.3333429 111.666771 78.3333429 94.4444857 123.333343 85.5556286"></polygon>
            <polygon id="Fill-11" fill="#B2A6C5" points="123.333343 120 123.086486 120.048857 78.3333429 128.888857 78.3333429 111.666857 123.333343 102.777714"></polygon>
            <polygon id="Fill-12" fill="#C1B8D1" points="123.333343 137.188629 78.3333429 146.4032 78.3333429 128.888914 123.333343 120.000057"></polygon>
            <path d="M123.333343,148.327971 C123.333343,151.3994 120.849629,153.888829 117.781629,153.888829 L83.8844857,153.888829 C80.8187714,153.888829 78.3333429,151.405114 78.3333429,148.334257 L78.3333429,146.403114 L123.333343,137.188543 L123.333343,148.327971 Z" id="Fill-13" fill="#D1CADC"></path>
        </g>
        <path d="M100,0 C155.228571,0 200,44.7722857 200,100 C200,155.228857 155.228571,200 100,200 C44.7711429,200 0,155.228857 0,100 C0,44.7722857 44.7711429,0 100,0 Z" id="Stroke-15" stroke="#210438" stroke-width="6"></path>
    </g>
</svg>