<svg width="207px" height="207px" viewBox="223 597 207 207" version="1.1" xmlns="http://www.w3.org/2000/svg" xmlns:xlink="http://www.w3.org/1999/xlink">
    <!-- Generator: Sketch 40.3 (33839) - http://www.bohemiancoding.com/sketch -->
    <desc>Created with Sketch.</desc>
    <defs></defs>
    <g id="Page-1" stroke="none" stroke-width="1" fill="none" fill-rule="evenodd" transform="translate(226.000000, 600.000000)">
        <g id="Group-12">
            <path d="M200,100 C200,155.228286 155.228286,200 100,200 C44.7714286,200 0,155.228286 0,100 C0,44.7714286 44.7714286,0 100,0 C155.228286,0 200,44.7714286 200,100" id="Fill-1" fill="#FFFFFF"></path>
            <path d="M143.858543,56.6667143 L198.5914,111.257571 C198.5914,111.257571 200.5554,136.666714 174.999971,165.000143 C149.444543,193.333286 112.559686,198.608429 112.559686,198.608429 L51.6676857,138.447286 L143.858543,56.6667143 Z" id="Fill-3" fill="#E0DBE8"></path>
            <path d="M100,39.4444857 C133.443429,39.4444857 160.555429,66.5564857 160.555429,99.9999143 C160.555429,133.4442 133.443429,160.555629 100,160.555629 C66.556,160.555629 39.4445714,133.4442 39.4445714,99.9999143 C39.4445714,66.5564857 66.556,39.4444857 100,39.4444857" id="Fill-4" fill="#FFFFFF"></path>
            <path d="M100,39.4444857 C133.443429,39.4444857 160.555429,66.5564857 160.555429,99.9999143 C160.555429,133.4442 133.443429,160.555629 100,160.555629 C66.556,160.555629 39.4445714,133.4442 39.4445714,99.9999143 C39.4445714,66.5564857 66.556,39.4444857 100,39.4444857 Z" id="Stroke-5" stroke="#523C64" stroke-width="5"></path>
            <path d="M100.974343,47.2223714 C102.576343,47.2223714 103.875771,48.5966571 103.875771,50.2918 C103.875771,51.9866571 102.576343,53.3609429 100.974343,53.3609429 C99.3717714,53.3609429 98.0729143,51.9866571 98.0729143,50.2918 C98.0729143,48.5966571 99.3717714,47.2223714 100.974343,47.2223714" id="Fill-6" fill="#523C64"></path>
            <path d="M100.974343,47.2223714 C102.576343,47.2223714 103.875771,48.5966571 103.875771,50.2918 C103.875771,51.9866571 102.576343,53.3609429 100.974343,53.3609429 C99.3717714,53.3609429 98.0729143,51.9866571 98.0729143,50.2918 C98.0729143,48.5966571 99.3717714,47.2223714 100.974343,47.2223714 Z" id="Stroke-7" stroke="#3F1F6E"></path>
            <path d="M145.794914,97.9627429 C145.794914,99.5284571 147.064343,100.797886 148.630057,100.797886 C150.195771,100.797886 151.464914,99.5284571 151.464914,97.9627429 C151.464914,96.3970286 150.195771,95.1281714 148.630057,95.1281714 C147.064343,95.1281714 145.794914,96.3970286 145.794914,97.9627429" id="Fill-8" fill="#C1B8D1"></path>
            <path d="M54.6983714,98.9188 C54.6983714,97.3530857 53.4289429,96.0839429 51.8629429,96.0839429 C50.2972286,96.0839429 49.0283714,97.3530857 49.0283714,98.9188 C49.0283714,100.484514 50.2972286,101.753943 51.8629429,101.753943 C53.4289429,101.753943 54.6983714,100.484514 54.6983714,98.9188" id="Fill-9" fill="#654D8B"></path>
            <path id="Stroke-10" stroke="#8C79A8" stroke-width="11" stroke-linecap="round"></path>
            <path d="M101.111057,100.277771 L101.111057,137.777771" id="Stroke-11" stroke="#8C79A8" stroke-width="6" stroke-linecap="round"></path>
        </g>
        <g id="Group-17" stroke-width="6">
            <path d="M100,0 C155.228571,0 200,44.7717143 200,100 C200,155.228857 155.228571,200 100,200 C44.7711429,200 0,155.228857 0,100 C0,44.7717143 44.7711429,0 100,0 Z" id="Stroke-13" stroke="#210438"></path>
            <path d="M101.388943,100.277771 L115.280657,86.3863429" id="Stroke-15" stroke="#3F1F6E" stroke-linecap="round"></path>
        </g>
    </g>
</svg>