<svg width="130px" height="131px" viewBox="18 849 130 131" version="1.1" xmlns="http://www.w3.org/2000/svg" xmlns:xlink="http://www.w3.org/1999/xlink">
    <!-- Generator: Sketch 40.3 (33839) - http://www.bohemiancoding.com/sketch -->
    <desc>Created with Sketch.</desc>
    <defs>
        <polygon id="path-1" points="0.072085 89.8716975 87.5966975 89.8716975 87.5966975 0.1356875 0.072085 0.1356875"></polygon>
        <polyline id="path-3" points="0 130 130 130 130 0 0 0"></polyline>
    </defs>
    <g id="Page-1" stroke="none" stroke-width="1" fill="none" fill-rule="evenodd" transform="translate(18.000000, 850.000000)">
        <path d="M121.875,65 C121.875,96.4110875 96.4110875,121.875 65,121.875 C33.58875,121.875 8.125,96.4110875 8.125,65 C8.125,33.58875 33.58875,8.125 65,8.125 C96.4110875,8.125 121.875,33.58875 121.875,65" id="Fill-1" stroke="#979797" fill="#FFFFFF"></path>
        <g id="Group-35" transform="translate(0.000000, -0.000000)">
            <g id="Group-5" transform="translate(33.962500, 31.687500)">
                <mask id="mask-2" fill="white">
                    <use xlink:href="#path-1"></use>
                </mask>
                <g id="Clip-4"></g>
            </g>
            <mask id="mask-4" fill="white">
                <use xlink:href="#path-3"></use>
            </mask>
            <g id="Clip-7"></g>
            <path d="M35.2985262,44.1455625 L41.9342137,44.1455625 C42.8061887,44.1455625 43.5140387,44.85325 43.5140387,45.7253875 L43.5140387,47.6217625 C43.5140387,48.49455 42.8061887,49.201425 41.9342137,49.201425 L35.2985262,49.201425 C34.4260637,49.201425 33.7187012,48.49455 33.7187012,47.6217625 L33.7187012,45.7253875 C33.7187012,44.85325 34.4260637,44.1455625 35.2985262,44.1455625" id="Fill-6" fill="#FFFFFF" mask="url(#mask-4)"></path>
            <path d="M35.2985262,44.1455625 L41.9342137,44.1455625 C42.8061887,44.1455625 43.5140387,44.85325 43.5140387,45.7253875 L43.5140387,47.6217625 C43.5140387,48.49455 42.8061887,49.201425 41.9342137,49.201425 L35.2985262,49.201425 C34.4260637,49.201425 33.7187012,48.49455 33.7187012,47.6217625 L33.7187012,45.7253875 C33.7187012,44.85325 34.4260637,44.1455625 35.2985262,44.1455625 Z" id="Stroke-8" stroke="#523C64" stroke-width="5" mask="url(#mask-4)"></path>
            <path d="M35.2985262,53.625 L41.9342137,53.625 C42.8061887,53.625 43.5140387,54.3326875 43.5140387,55.204825 L43.5140387,57.1003875 C43.5140387,57.973175 42.8061887,58.6808625 41.9342137,58.6808625 L35.2985262,58.6808625 C34.4260637,58.6808625 33.7187012,57.973175 33.7187012,57.1003875 L33.7187012,55.204825 C33.7187012,54.3326875 34.4260637,53.625 35.2985262,53.625" id="Fill-9" fill="#FFFFFF" mask="url(#mask-4)"></path>
            <path d="M35.2985262,53.625 L41.9342137,53.625 C42.8061887,53.625 43.5140387,54.3326875 43.5140387,55.204825 L43.5140387,57.1003875 C43.5140387,57.973175 42.8061887,58.6808625 41.9342137,58.6808625 L35.2985262,58.6808625 C34.4260637,58.6808625 33.7187012,57.973175 33.7187012,57.1003875 L33.7187012,55.204825 C33.7187012,54.3326875 34.4260637,53.625 35.2985262,53.625 Z" id="Stroke-10" stroke="#523C64" stroke-width="5" mask="url(#mask-4)"></path>
            <path d="M35.2985262,63.1044375 L41.9342137,63.1044375 C42.8061887,63.1044375 43.5140387,63.811475 43.5140387,64.6842625 L43.5140387,66.579825 C43.5140387,67.4526125 42.8061887,68.1594875 41.9342137,68.1594875 L35.2985262,68.1594875 C34.4260637,68.1594875 33.7187012,67.4526125 33.7187012,66.579825 L33.7187012,64.6842625 C33.7187012,63.811475 34.4260637,63.1044375 35.2985262,63.1044375" id="Fill-11" fill="#FFFFFF" mask="url(#mask-4)"></path>
            <path d="M35.2985262,63.1044375 L41.9342137,63.1044375 C42.8061887,63.1044375 43.5140387,63.811475 43.5140387,64.6842625 L43.5140387,66.579825 C43.5140387,67.4526125 42.8061887,68.1594875 41.9342137,68.1594875 L35.2985262,68.1594875 C34.4260637,68.1594875 33.7187012,67.4526125 33.7187012,66.579825 L33.7187012,64.6842625 C33.7187012,63.811475 34.4260637,63.1044375 35.2985262,63.1044375 Z" id="Stroke-12" stroke="#523C64" stroke-width="5" mask="url(#mask-4)"></path>
            <path d="M35.2985262,72.5830625 L41.9342137,72.5830625 C42.8061887,72.5830625 43.5140387,73.29075 43.5140387,74.1628875 L43.5140387,76.0592625 C43.5140387,76.93205 42.8061887,77.638925 41.9342137,77.638925 L35.2985262,77.638925 C34.4260637,77.638925 33.7187012,76.93205 33.7187012,76.0592625 L33.7187012,74.1628875 C33.7187012,73.29075 34.4260637,72.5830625 35.2985262,72.5830625" id="Fill-13" fill="#FFFFFF" mask="url(#mask-4)"></path>
            <path d="M35.2985262,72.5830625 L41.9342137,72.5830625 C42.8061887,72.5830625 43.5140387,73.29075 43.5140387,74.1628875 L43.5140387,76.0592625 C43.5140387,76.93205 42.8061887,77.638925 41.9342137,77.638925 L35.2985262,77.638925 C34.4260637,77.638925 33.7187012,76.93205 33.7187012,76.0592625 L33.7187012,74.1628875 C33.7187012,73.29075 34.4260637,72.5830625 35.2985262,72.5830625 Z" id="Stroke-14" stroke="#523C64" stroke-width="5" mask="url(#mask-4)"></path>
            <path d="M35.2985262,82.0625 L41.9342137,82.0625 C42.8061887,82.0625 43.5140387,82.7701875 43.5140387,83.642325 L43.5140387,85.5378875 C43.5140387,86.410675 42.8061887,87.1183625 41.9342137,87.1183625 L35.2985262,87.1183625 C34.4260637,87.1183625 33.7187012,86.410675 33.7187012,85.5378875 L33.7187012,83.642325 C33.7187012,82.7701875 34.4260637,82.0625 35.2985262,82.0625" id="Fill-15" fill="#FFFFFF" mask="url(#mask-4)"></path>
            <path d="M35.2985262,82.0625 L41.9342137,82.0625 C42.8061887,82.0625 43.5140387,82.7701875 43.5140387,83.642325 L43.5140387,85.5378875 C43.5140387,86.410675 42.8061887,87.1183625 41.9342137,87.1183625 L35.2985262,87.1183625 C34.4260637,87.1183625 33.7187012,86.410675 33.7187012,85.5378875 L33.7187012,83.642325 C33.7187012,82.7701875 34.4260637,82.0625 35.2985262,82.0625 Z" id="Stroke-16" stroke="#523C64" stroke-width="5" mask="url(#mask-4)"></path>
            <path d="M87.4341975,44.1455625 L94.06956,44.1455625 C94.94186,44.1455625 95.6492225,44.85325 95.6492225,45.7253875 L95.6492225,47.6217625 C95.6492225,48.49455 94.94186,49.201425 94.06956,49.201425 L87.4341975,49.201425 C86.56141,49.201425 85.8540475,48.49455 85.8540475,47.6217625 L85.8540475,45.7253875 C85.8540475,44.85325 86.56141,44.1455625 87.4341975,44.1455625" id="Fill-17" fill="#FFFFFF" mask="url(#mask-4)"></path>
            <path d="M87.4341975,44.1455625 L94.06956,44.1455625 C94.94186,44.1455625 95.6492225,44.85325 95.6492225,45.7253875 L95.6492225,47.6217625 C95.6492225,48.49455 94.94186,49.201425 94.06956,49.201425 L87.4341975,49.201425 C86.56141,49.201425 85.8540475,48.49455 85.8540475,47.6217625 L85.8540475,45.7253875 C85.8540475,44.85325 86.56141,44.1455625 87.4341975,44.1455625 Z" id="Stroke-18" stroke="#523C64" stroke-width="5" mask="url(#mask-4)"></path>
            <path d="M87.4341975,53.625 L94.06956,53.625 C94.94186,53.625 95.6492225,54.3326875 95.6492225,55.204825 L95.6492225,57.1003875 C95.6492225,57.973175 94.94186,58.6808625 94.06956,58.6808625 L87.4341975,58.6808625 C86.56141,58.6808625 85.8540475,57.973175 85.8540475,57.1003875 L85.8540475,55.204825 C85.8540475,54.3326875 86.56141,53.625 87.4341975,53.625" id="Fill-19" fill="#FFFFFF" mask="url(#mask-4)"></path>
            <path d="M87.4341975,53.625 L94.06956,53.625 C94.94186,53.625 95.6492225,54.3326875 95.6492225,55.204825 L95.6492225,57.1003875 C95.6492225,57.973175 94.94186,58.6808625 94.06956,58.6808625 L87.4341975,58.6808625 C86.56141,58.6808625 85.8540475,57.973175 85.8540475,57.1003875 L85.8540475,55.204825 C85.8540475,54.3326875 86.56141,53.625 87.4341975,53.625 Z" id="Stroke-20" stroke="#523C64" stroke-width="5" mask="url(#mask-4)"></path>
            <path d="M87.4341975,63.1044375 L94.06956,63.1044375 C94.94186,63.1044375 95.6492225,63.811475 95.6492225,64.6842625 L95.6492225,66.579825 C95.6492225,67.4526125 94.94186,68.1594875 94.06956,68.1594875 L87.4341975,68.1594875 C86.56141,68.1594875 85.8540475,67.4526125 85.8540475,66.579825 L85.8540475,64.6842625 C85.8540475,63.811475 86.56141,63.1044375 87.4341975,63.1044375" id="Fill-21" fill="#FFFFFF" mask="url(#mask-4)"></path>
            <path d="M87.4341975,63.1044375 L94.06956,63.1044375 C94.94186,63.1044375 95.6492225,63.811475 95.6492225,64.6842625 L95.6492225,66.579825 C95.6492225,67.4526125 94.94186,68.1594875 94.06956,68.1594875 L87.4341975,68.1594875 C86.56141,68.1594875 85.8540475,67.4526125 85.8540475,66.579825 L85.8540475,64.6842625 C85.8540475,63.811475 86.56141,63.1044375 87.4341975,63.1044375 Z" id="Stroke-22" stroke="#523C64" stroke-width="5" mask="url(#mask-4)"></path>
            <path d="M87.4341975,72.5830625 L94.06956,72.5830625 C94.94186,72.5830625 95.6492225,73.29075 95.6492225,74.1628875 L95.6492225,76.0592625 C95.6492225,76.93205 94.94186,77.638925 94.06956,77.638925 L87.4341975,77.638925 C86.56141,77.638925 85.8540475,76.93205 85.8540475,76.0592625 L85.8540475,74.1628875 C85.8540475,73.29075 86.56141,72.5830625 87.4341975,72.5830625" id="Fill-23" fill="#FFFFFF" mask="url(#mask-4)"></path>
            <path d="M87.4341975,72.5830625 L94.06956,72.5830625 C94.94186,72.5830625 95.6492225,73.29075 95.6492225,74.1628875 L95.6492225,76.0592625 C95.6492225,76.93205 94.94186,77.638925 94.06956,77.638925 L87.4341975,77.638925 C86.56141,77.638925 85.8540475,76.93205 85.8540475,76.0592625 L85.8540475,74.1628875 C85.8540475,73.29075 86.56141,72.5830625 87.4341975,72.5830625 Z" id="Stroke-24" stroke="#523C64" stroke-width="5" mask="url(#mask-4)"></path>
            <path d="M87.4341975,82.0625 L94.06956,82.0625 C94.94186,82.0625 95.6492225,82.7701875 95.6492225,83.642325 L95.6492225,85.5378875 C95.6492225,86.410675 94.94186,87.1183625 94.06956,87.1183625 L87.4341975,87.1183625 C86.56141,87.1183625 85.8540475,86.410675 85.8540475,85.5378875 L85.8540475,83.642325 C85.8540475,82.7701875 86.56141,82.0625 87.4341975,82.0625" id="Fill-25" fill="#FFFFFF" mask="url(#mask-4)"></path>
            <path d="M87.4341975,82.0625 L94.06956,82.0625 C94.94186,82.0625 95.6492225,82.7701875 95.6492225,83.642325 L95.6492225,85.5378875 C95.6492225,86.410675 94.94186,87.1183625 94.06956,87.1183625 L87.4341975,87.1183625 C86.56141,87.1183625 85.8540475,86.410675 85.8540475,85.5378875 L85.8540475,83.642325 C85.8540475,82.7701875 86.56141,82.0625 87.4341975,82.0625 Z" id="Stroke-26" stroke="#523C64" stroke-width="5" mask="url(#mask-4)"></path>
            <path d="M47.305505,30.2434112 L82.0624675,30.2434112 C85.55248,30.2434112 88.38193,33.0728612 88.38193,36.5625487 L88.38193,93.7532862 C88.38193,97.2437862 85.55248,100.073236 82.0624675,100.073236 L47.305505,100.073236 C43.8154925,100.073236 40.9860425,97.2437862 40.9860425,93.7532862 L40.9860425,36.5625487 C40.9860425,33.0728612 43.8154925,30.2434112 47.305505,30.2434112" id="Fill-27" fill="#FFFFFF" mask="url(#mask-4)"></path>
            <path d="M47.305505,30.2434112 L82.0624675,30.2434112 C85.55248,30.2434112 88.38193,33.0728612 88.38193,36.5625487 L88.38193,93.7532862 C88.38193,97.2437862 85.55248,100.073236 82.0624675,100.073236 L47.305505,100.073236 C43.8154925,100.073236 40.9860425,97.2437862 40.9860425,93.7532862 L40.9860425,36.5625487 C40.9860425,33.0728612 43.8154925,30.2434112 47.305505,30.2434112 Z" id="Stroke-28" stroke="#523C64" stroke-width="5" mask="url(#mask-4)"></path>
            <path d="M54.256995,80.48352 C54.256995,78.737945 55.6744825,77.32322 57.419245,77.32322 L81.1115825,77.32322 C82.858295,77.32322 84.27432,78.737945 84.27432,80.48352 L84.27432,92.4885325 C84.27432,94.2341075 82.8568325,95.649645 81.1115825,95.649645 L57.419245,95.649645 C55.6725325,95.649645 54.256995,94.2341075 54.256995,92.4885325 L54.256995,80.48352 Z" id="Fill-29" fill="#D1CADC" mask="url(#mask-4)"></path>
            <path d="M64.927005,80.9611887 L79.5346175,80.9611887 C82.1521675,80.9611887 84.274255,83.0829512 84.274255,85.7005012 L84.274255,90.9063512 C84.274255,93.5240637 82.1521675,95.6464762 79.5346175,95.6464762 L64.927005,95.6464762 C62.309455,95.6464762 60.1876925,93.5240637 60.1876925,90.9063512 L60.1876925,85.7005012 C60.1876925,83.0829512 62.309455,80.9611887 64.927005,80.9611887" id="Fill-30" fill="#B2A6C5" mask="url(#mask-4)"></path>
            <path d="M68.8070013,84.1532575 L81.1147513,84.1532575 C82.8595138,84.1532575 84.2742388,85.5679825 84.2742388,87.312745 L84.2742388,92.4869075 C84.2742388,94.23167 82.8595138,95.6465575 81.1147513,95.6465575 L68.8070013,95.6465575 C67.0617513,95.6465575 65.6475138,94.23167 65.6475138,92.4869075 L65.6475138,87.312745 C65.6475138,85.5679825 67.0617513,84.1532575 68.8070013,84.1532575" id="Fill-31" fill="#8C79A8" mask="url(#mask-4)"></path>
            <path d="M74.2719413,87.0263713 L81.4305538,87.0263713 C83.0007913,87.0263713 84.2743038,88.2998838 84.2743038,89.8701213 L84.2743038,92.8027588 C84.2743038,94.3729963 83.0007913,95.6465088 81.4305538,95.6465088 L74.2719413,95.6465088 C72.7012163,95.6465088 71.4281913,94.3729963 71.4281913,92.8027588 L71.4281913,89.8701213 C71.4281913,88.2998838 72.7012163,87.0263713 74.2719413,87.0263713" id="Fill-32" fill="#654D8B" mask="url(#mask-4)"></path>
            <path d="M76.56662,92.7503688 C76.56662,91.3522188 77.69567,90.2192688 79.09577,90.2192688 L84.27432,90.2192688 L84.27432,92.9328563 C84.27432,94.4309438 83.06142,95.6464438 81.56187,95.6464438 L76.56662,95.6464438 L76.56662,92.7503688 Z" id="Fill-33" fill="#3F1F6E" mask="url(#mask-4)"></path>
            <path d="M65,8.125 C96.4114125,8.125 121.875,33.5894 121.875,65 C121.875,96.4114125 96.4114125,121.875 65,121.875 C33.5885875,121.875 8.125,96.4114125 8.125,65 C8.125,33.5894 33.5885875,8.125 65,8.125 Z" id="Stroke-34" stroke="#210438" stroke-width="8" mask="url(#mask-4)"></path>
        </g>
    </g>
</svg>