<?xml version="1.0" encoding="UTF-8"?>
<svg width="84px" height="86px" viewBox="0 0 84 86" version="1.1" xmlns="http://www.w3.org/2000/svg" xmlns:xlink="http://www.w3.org/1999/xlink">
    <!-- Generator: Sketch 40.3 (33839) - http://www.bohemiancoding.com/sketch -->
    <title>Stroke 144</title>
    <desc>Created with Sketch.</desc>
    <defs></defs>
    <g id="Pages" stroke="none" stroke-width="1" fill="none" fill-rule="evenodd">
        <g id="products-page" transform="translate(-1178.000000, -1282.000000)" stroke="#5F4784" stroke-width="4">
            <path d="M1259.9981,1330.89905 L1260,1319.53143 L1250.01841,1318.68825 C1249.31937,1314.96825 1247.96825,1311.48317 1246.08254,1308.3619 L1252.74984,1300.38476 L1244.81079,1292.3454 L1237.16825,1298.89397 C1234.17397,1296.83365 1230.7981,1295.30222 1227.17333,1294.41778 L1226.31492,1284 L1215.08762,1284 L1214.25587,1294.10603 C1210.58159,1294.81397 1207.14159,1296.18095 1204.06032,1298.09206 L1196.18222,1291.34095 L1188.2419,1299.37968 L1194.71048,1307.12 C1192.67492,1310.15175 1191.16,1313.56825 1190.28889,1317.24063 L1180.00254,1318.10857 L1180,1329.47746 L1189.98095,1330.32 C1190.67937,1334.04063 1192.02984,1337.52508 1193.9181,1340.64444 L1187.25143,1348.62286 L1195.18984,1356.66159 L1202.83238,1350.11492 C1205.8254,1352.17587 1209.19937,1353.70921 1212.82667,1354.58984 L1213.68444,1365.00889 L1224.91175,1365.00889 L1225.74476,1354.90349 C1229.41587,1354.19556 1232.85714,1352.8254 1235.93841,1350.91746 L1243.81714,1357.66857 L1251.75683,1349.62857 L1245.29016,1341.88825 C1247.32635,1338.85651 1248.83873,1335.43937 1249.71111,1331.76762 L1259.9981,1330.89905 Z M1198.48889,1324.50476 C1198.48889,1312.47365 1208.12063,1302.7219 1220,1302.7219 L1198.48889,1324.50476 Z M1232.4527,1324.50476 C1232.4527,1331.46857 1226.87683,1337.11556 1220,1337.11556 C1213.12317,1337.11556 1207.5473,1331.46857 1207.5473,1324.50476 C1207.5473,1317.53968 1213.12317,1311.89397 1220,1311.89397 C1226.87683,1311.89397 1232.4527,1317.53968 1232.4527,1324.50476 Z" id="Stroke-144"></path>
        </g>
    </g>
</svg>