<?xml version="1.0" encoding="UTF-8"?>
<svg width="82px" height="82px" viewBox="0 0 82 82" version="1.1" xmlns="http://www.w3.org/2000/svg" xmlns:xlink="http://www.w3.org/1999/xlink">
    <!-- Generator: Sketch 40.3 (33839) - http://www.bohemiancoding.com/sketch -->
    <title>Stroke 74</title>
    <desc>Created with Sketch.</desc>
    <defs></defs>
    <g id="Pages" stroke="none" stroke-width="1" fill="none" fill-rule="evenodd">
        <g id="products-page" transform="translate(-1187.000000, -922.000000)" stroke="#5F4784" stroke-width="4">
            <g id="Group-6" transform="translate(-6.000000, -2.000000)">
                <path d="M1196,975.499781 L1211.01771,975.499781 L1211.01771,1004 L1202.93315,1004 L1196,975.499781 Z M1236.96752,929.691435 C1236.9799,927.134834 1239.02889,925.537732 1241.52978,926.119622 C1243.99353,926.695322 1245.98062,929.159068 1246.03014,931.666146 L1246.03633,931.666146 L1246.00538,936.42031 L1241.33788,935.337004 L1241.33788,935.330814 C1238.8989,934.687021 1236.94895,932.198514 1236.96752,929.691435 Z M1255.01229,929.691435 C1254.99372,927.134834 1252.94473,925.537732 1250.44384,926.119622 C1247.98009,926.695322 1245.993,929.159068 1245.94348,931.666146 L1245.93729,931.666146 L1245.96824,936.42031 L1250.63574,935.337004 L1250.63574,935.330814 C1253.08091,934.687021 1255.02467,932.198514 1255.01229,929.691435 Z M1222.71741,945.340556 L1269.27478,945.340556 L1269.27478,937.02077 L1222.71741,937.02077 L1222.71741,945.340556 Z M1249.7629,945.959588 L1249.7629,939.274046 L1249.7629,945.959588 Z M1242.22929,938.655014 L1242.22929,945.340556 L1242.22929,938.655014 Z M1242.43976,967.848549 L1242.43976,945.340556 L1249.55862,945.340556 L1249.55862,967.848549 L1242.43976,967.848549 Z M1263.55493,951.097551 L1255.61894,951.097551 L1263.55493,951.097551 Z M1263.55493,956.761691 L1259.68598,956.761691 L1263.55493,956.761691 Z M1224.01118,967.848549 L1224.01118,945.340556 L1267.9872,945.340556 L1267.9872,965.941931 L1224.01118,967.848549 Z M1214.8619,995.420221 L1225.38543,995.420221 L1253.80518,984.952395 L1272.0109,972.522238 C1271.96138,972.460335 1271.91805,972.404622 1271.86233,972.348909 L1270.54999,971.048943 C1268.38338,968.900903 1264.75585,969.42708 1262.21782,971.240843 L1251.39096,977.424969 L1247.13202,979.882525 L1228.87677,979.882525 L1228.88296,979.870144 L1240.19886,979.894906 C1243.10212,979.814432 1245.38635,976.607847 1245.29968,973.72935 C1245.29968,973.72935 1245.23778,973.073176 1245.23159,972.998893 L1225.03878,972.998893 L1217.2266,979.808241 L1214.8619,979.808241 L1214.8619,995.420221 Z" id="Stroke-74"></path>
            </g>
        </g>
    </g>
</svg>