<svg width="207px" height="207px" viewBox="578 597 207 207" version="1.1" xmlns="http://www.w3.org/2000/svg" xmlns:xlink="http://www.w3.org/1999/xlink">
    <!-- Generator: Sketch 40.3 (33839) - http://www.bohemiancoding.com/sketch -->
    <desc>Created with Sketch.</desc>
    <defs></defs>
    <g id="Page-1" stroke="none" stroke-width="1" fill="none" fill-rule="evenodd" transform="translate(581.000000, 600.000000)">
        <path d="M200,100 C200,155.228286 155.228286,200 100,200 C44.7714286,200 0,155.228286 0,100 C0,44.7714286 44.7714286,0 100,0 C155.228286,0 200,44.7714286 200,100" id="Fill-1" fill="#FFFFFF"></path>
        <path d="M143.6112,57.2222286 L198.458057,111.791943 C198.458057,111.791943 197.714914,141.835371 171.388914,169.166514 C144.166629,197.428514 112.500057,198.8888 112.500057,198.8888 L56.9446286,143.333371 L144.166629,67.2222286 L143.888914,58.8888 L143.6112,57.2222286 Z" id="Fill-3" fill="#E0DBE8"></path>
        <path d="M72.5,144.166571 L72.5,102.778 L56.1111429,110.555429 L56.1111429,140.277714 C56.1111429,140.277714 56.6337143,142.189714 57.2222857,142.778 C57.9297143,143.485714 60,144.166571 60,144.166571 L72.5,144.166571 Z" id="Fill-4" fill="#C1B8D1"></path>
        <path d="M90.8334286,144.166571 L90.8334286,90.5554286 L72.5,102.778 C72.5,102.778 71.5734286,143.578571 72.2222857,144.166571 C73.002,144.874857 90.8334286,144.166571 90.8334286,144.166571" id="Fill-5" fill="#B2A6C5"></path>
        <polygon id="Fill-6" fill="#8C79A8" points="109.444486 144.166571 109.444486 85 90.8333429 90.8334286 90.8333429 144.166571"></polygon>
        <polygon id="Fill-7" fill="#654D8B" points="127.777914 144.166571 127.777914 68.3334286 109.444486 85 109.444486 144.166571"></polygon>
        <path d="M140.555514,144.166571 C141.505514,144.166571 144.240086,142.248571 144.166657,138.611143 L144.166657,61.9445714 L127.7778,68.0554286 L127.7778,144.166571 L140.555514,144.166571 Z" id="Fill-8" fill="#3F1F6E"></path>
        <path d="M100,0 C155.228571,0 200,44.7714286 200,100 C200,155.228857 155.228571,200 100,200 C44.7711429,200 0,155.228857 0,100 C0,44.7714286 44.7711429,0 100,0 Z" id="Stroke-9" stroke="#3F1F6E" stroke-width="6"></path>
        <polyline id="Stroke-10" stroke="#635074" stroke-width="3" stroke-linecap="square" points="56.3889429 110.277771 73.0555143 102.500057 91.3889429 90.2777714 109.722371 85.0000571 128.333514 67.7777714 144.166657 61.9443429"></polyline>
        <path d="M60.5555143,55 L139.444371,55 C142.512657,55 145.000086,57.4877143 145.000086,60.5554286 L145.000086,139.444571 C145.000086,142.513143 142.512657,145 139.444371,145 L60.5555143,145 C57.4869429,145 55.0000857,142.513143 55.0000857,139.444571 L55.0000857,60.5554286 C55.0000857,57.4877143 57.4869429,55 60.5555143,55 Z" id="Stroke-11" stroke="#3F1F6E" stroke-width="5"></path>
        <path d="M72.2222286,100 C73.7559429,100 74.9999429,101.244 74.9999429,102.778 C74.9999429,104.312 73.7559429,105.555429 72.2222286,105.555429 C70.6879429,105.555429 69.4445143,104.312 69.4445143,102.778 C69.4445143,101.244 70.6879429,100 72.2222286,100" id="Fill-12" fill="#FFFFFF"></path>
        <path d="M72.2222286,100 C73.7559429,100 74.9999429,101.244 74.9999429,102.778 C74.9999429,104.312 73.7559429,105.555429 72.2222286,105.555429 C70.6879429,105.555429 69.4445143,104.312 69.4445143,102.778 C69.4445143,101.244 70.6879429,100 72.2222286,100 Z" id="Stroke-13" stroke="#3F1F6E" stroke-width="3"></path>
        <path d="M91.1112,87.7779143 C92.6449143,87.7779143 93.8889143,89.0219143 93.8889143,90.5556286 C93.8889143,92.0899143 92.6449143,93.3333429 91.1112,93.3333429 C89.5766286,93.3333429 88.3334857,92.0899143 88.3334857,90.5556286 C88.3334857,89.0219143 89.5766286,87.7779143 91.1112,87.7779143" id="Fill-14" fill="#FFFFFF"></path>
        <path d="M91.1112,87.7779143 C92.6449143,87.7779143 93.8889143,89.0219143 93.8889143,90.5556286 C93.8889143,92.0899143 92.6449143,93.3333429 91.1112,93.3333429 C89.5766286,93.3333429 88.3334857,92.0899143 88.3334857,90.5556286 C88.3334857,89.0219143 89.5766286,87.7779143 91.1112,87.7779143 Z" id="Stroke-15" stroke="#3F1F6E" stroke-width="3"></path>
        <path d="M109.444486,82.2222286 C110.9782,82.2222286 112.2222,83.4662286 112.2222,84.9999429 C112.2222,86.5342286 110.9782,87.7779429 109.444486,87.7779429 C107.9102,87.7779429 106.666486,86.5342286 106.666486,84.9999429 C106.666486,83.4662286 107.9102,82.2222286 109.444486,82.2222286" id="Fill-16" fill="#FFFFFF"></path>
        <path d="M109.444486,82.2222286 C110.9782,82.2222286 112.2222,83.4662286 112.2222,84.9999429 C112.2222,86.5342286 110.9782,87.7779429 109.444486,87.7779429 C107.9102,87.7779429 106.666486,86.5342286 106.666486,84.9999429 C106.666486,83.4662286 107.9102,82.2222286 109.444486,82.2222286 Z" id="Stroke-17" stroke="#3F1F6E" stroke-width="3"></path>
        <path d="M127.777914,65.5555143 C129.311629,65.5555143 130.555629,66.7995143 130.555629,68.3335143 C130.555629,69.8678 129.311629,71.1112286 127.777914,71.1112286 C126.243629,71.1112286 124.999914,69.8678 124.999914,68.3335143 C124.999914,66.7995143 126.243629,65.5555143 127.777914,65.5555143" id="Fill-18" fill="#FFFFFF"></path>
        <path d="M127.777914,65.5555143 C129.311629,65.5555143 130.555629,66.7995143 130.555629,68.3335143 C130.555629,69.8678 129.311629,71.1112286 127.777914,71.1112286 C126.243629,71.1112286 124.999914,69.8678 124.999914,68.3335143 C124.999914,66.7995143 126.243629,65.5555143 127.777914,65.5555143 Z" id="Stroke-19" stroke="#3F1F6E" stroke-width="3"></path>
    </g>
</svg>