<?xml version="1.0" encoding="UTF-8"?>
<svg width="68px" height="74px" viewBox="0 0 68 74" version="1.1" xmlns="http://www.w3.org/2000/svg" xmlns:xlink="http://www.w3.org/1999/xlink">
    <!-- Generator: Sketch 40.3 (33839) - http://www.bohemiancoding.com/sketch -->
    <title>Group 4</title>
    <desc>Created with Sketch.</desc>
    <defs></defs>
    <g id="Pages" stroke="none" stroke-width="1" fill="none" fill-rule="evenodd">
        <g id="products-page" transform="translate(-1182.000000, -1106.000000)" stroke="#5F4784" stroke-width="4">
            <g id="Group-6" transform="translate(-6.000000, -2.000000)">
                <g id="Group-4" transform="translate(1190.000000, 1110.000000)">
                    <path d="M14,46.1005236 L14,36 L21.6145756,46.1005236 L21.6145756,36 M33.1169742,36 L26.4035055,36 L26.4035055,46.1005236 L33.1169742,46.1005236 M33.1169742,41.0475006 L26.4035055,41.0475006 M50.5468635,36 L46.5118081,46.1005236 L43.5394834,38.6783783 L40.4509225,46.1005236 L36.4103321,36" id="Stroke-73" stroke-linecap="round" stroke-linejoin="round"></path>
                    <path d="M45,8 C55.0738007,12.5449595 62.2472325,22.2368233 63.0553506,33.6572075" id="Stroke-118" stroke-dasharray="3.844,3.844"></path>
                    <path d="M62.9833948,38.8226794 C62.9944649,39.1926822 63,39.5571625 63,39.9271653 M63,38.8779037 C63,56.0195249 48.896679,69.9029126 31.5,69.9029126 C14.097786,69.9029126 0,56.0195249 0,38.8779037 C0,21.7418049 14.097786,7.85289475 31.5,7.85289475 M22.8819188,0 L31.6273063,8.61499002 L22.8819188,17.22998" id="Stroke-119"></path>
                </g>
            </g>
        </g>
    </g>
</svg>