<svg width="119px" height="119px" viewBox="14 1033 119 119" version="1.1" xmlns="http://www.w3.org/2000/svg" xmlns:xlink="http://www.w3.org/1999/xlink">
    <!-- Generator: Sketch 40.3 (33839) - http://www.bohemiancoding.com/sketch -->
    <desc>Created with Sketch.</desc>
    <defs></defs>
    <g id="Page-1" stroke="none" stroke-width="1" fill="none" fill-rule="evenodd" transform="translate(16.000000, 1035.000000)">
        <g id="Group-13" transform="translate(0.000000, 0.969101)">
            <path d="M115,56.5308989 C115,87.7519452 89.2562643,113.061798 57.5,113.061798 C25.7435714,113.061798 0,87.7519452 0,56.5308989 C0,25.309691 25.7435714,0 57.5,0 C89.2562643,0 115,25.309691 115,56.5308989" id="Fill-1" fill="#FFFFFF"></path>
            <path d="M35.1937293,28.7441692 L82.1589079,28.7441692 C84.8487579,28.7441692 87.0293221,30.8878209 87.0293221,33.5324979 L87.0293221,79.1863673 C87.0293221,81.8308827 84.8487579,83.9746959 82.1589079,83.9746959 L35.1937293,83.9746959 C32.5038793,83.9746959 30.323315,81.8308827 30.323315,79.1863673 L30.323315,33.5324979 C30.323315,30.8878209 32.5038793,28.7441692 35.1937293,28.7441692" id="Fill-4" fill="#FFFFFF"></path>
            <path d="M35.1937293,28.7441692 L82.1589079,28.7441692 C84.8487579,28.7441692 87.0293221,30.8878209 87.0293221,33.5324979 L87.0293221,79.1863673 C87.0293221,81.8308827 84.8487579,83.9746959 82.1589079,83.9746959 L35.1937293,83.9746959 C32.5038793,83.9746959 30.323315,81.8308827 30.323315,79.1863673 L30.323315,33.5324979 C30.323315,30.8878209 32.5038793,28.7441692 35.1937293,28.7441692 Z" id="Stroke-5" stroke="#523C64" stroke-width="5"></path>
            <path d="M80.9466436,34.929118 C80.9466436,34.929118 73.117115,42.5543287 69.2869579,46.3286545 C65.6937007,49.869427 58.6762364,56.8739284 58.6762364,56.8739284 L36.3342007,35.0597851 L80.9466436,34.929118 Z" id="Fill-6" fill="#E0DBE8"></path>
            <polygon id="Fill-7" fill="#D1CADC" points="69.4610843 46.1559607 69.4610843 67.592316 58.6763843 56.8738961"></polygon>
            <polygon id="Fill-8" fill="#C1B8D1" points="69.4610843 46.1559607 80.9412057 34.9187486 80.9412057 56.355427 69.4610843 67.592316"></polygon>
            <path d="M58.1544157,78.4834621 C58.1544157,78.4834621 65.6979229,71.237816 69.4610514,67.5922191 C73.29088,63.8820154 80.9339443,56.3708357 80.9339443,56.3708357 L80.9339443,78.4388834 L58.1544157,78.4834621 Z" id="Fill-9" fill="#B2A6C5"></path>
            <polygon id="Fill-10" fill="#8C79A8" points="69.4610843 67.5954333 58.1544486 78.4834459 47.5440557 67.5954333 58.6763843 56.8739445"></polygon>
            <polygon id="Fill-11" fill="#654D8B" points="36.2676814 78.5061875 47.5440886 67.5923322 58.1544814 78.4834136"></polygon>
            <polygon id="Fill-12" fill="#3F1F6E" points="36.2676814 34.9945808 58.6762529 56.8739768 36.2676814 78.5062521"></polygon>
        </g>
        <path d="M57.471365,0.154264747 C25.7308721,0.154264747 -4.92857143e-05,25.8289838 -4.92857143e-05,57.5001777 C-4.92857143e-05,89.1713715 25.7308721,114.845768 57.471365,114.845768 C89.2121864,114.845768 114.943108,89.1713715 114.943108,57.5001777 C114.943108,25.8289838 89.2121864,0.154264747 57.471365,0.154264747 Z" id="Stroke-14" stroke="#210438" stroke-width="3"></path>
    </g>
</svg>