<?xml version="1.0" encoding="UTF-8"?>
<svg width="79px" height="74px" viewBox="0 0 79 74" version="1.1" xmlns="http://www.w3.org/2000/svg" xmlns:xlink="http://www.w3.org/1999/xlink">
    <!-- Generator: Sketch 40.3 (33839) - http://www.bohemiancoding.com/sketch -->
    <title>Group 3</title>
    <desc>Created with Sketch.</desc>
    <defs></defs>
    <g id="Pages" stroke="none" stroke-width="1" fill="none" fill-rule="evenodd">
        <g id="products-page" transform="translate(-515.000000, -1286.000000)" stroke="#5F4784" stroke-width="4">
            <g id="Group-3" transform="translate(517.000000, 1288.000000)">
                <path d="M37.0537771,70 C16.5820576,70 0,54.3426272 0,35.0347995 C0,15.7379672 16.5820576,0.0970873786 37.0537771,0.0970873786 C57.5155036,0.0970873786 74.0664062,15.7379672 74.0664062,35.0347995 C74.0664062,54.3426272 57.5155036,70 37.0537771,70 Z" id="Stroke-44" stroke-dasharray="3.976,3.976"></path>
                <path d="M30.461867,29.4711544 C30.461867,32.5938327 27.7819563,35.1227623 24.4718933,35.1227623 C21.1635938,35.1227623 18.4854466,32.5938327 18.4854466,29.4711544 L18.4854466,21.7634168 C18.4854466,18.6407385 21.1635938,16.1118089 24.4718933,16.1118089 C27.7819563,16.1118089 30.461867,18.6407385 30.461867,21.7634168 L30.461867,29.4711544 Z M55.4586913,48.7185077 C55.4586913,51.8356883 52.7793684,54.3701156 49.4675419,54.3701156 C46.1615938,54.3701156 43.4805074,51.8356883 43.4805074,48.7185077 L43.4805074,41.0052724 C43.4805074,37.8825941 46.1615938,35.3536645 49.4675419,35.3536645 C52.7793684,35.3536645 55.4586913,37.8825941 55.4586913,41.0052724 L55.4586913,48.7185077 Z M57.3168175,16.0403392 L16.4592014,54.6065155 L57.3168175,16.0403392 Z" id="Stroke-45"></path>
            </g>
        </g>
    </g>
</svg>