<svg width="207px" height="210px" viewBox="1377 597 207 210" version="1.1" xmlns="http://www.w3.org/2000/svg" xmlns:xlink="http://www.w3.org/1999/xlink">
    <!-- Generator: Sketch 40.3 (33839) - http://www.bohemiancoding.com/sketch -->
    <desc>Created with Sketch.</desc>
    <defs></defs>
    <g id="Page-1" stroke="none" stroke-width="1" fill="none" fill-rule="evenodd" transform="translate(1381.000000, 600.000000)">
        <g id="Group-13" transform="translate(0.000000, 1.714286)">
            <path d="M200,100 C200,155.228286 155.228286,200 100,200 C44.7714286,200 0,155.228286 0,100 C0,44.7714286 44.7714286,0 100,0 C155.228286,0 200,44.7714286 200,100" id="Fill-1" fill="#FFFFFF"></path>
            <path d="M148.6328,53.5775714 L199.999943,106.190429 C199.999943,106.190429 198.870514,136.401286 175.718229,166.330143 C152.565943,196.258714 108.593086,201.341 108.593086,201.341 L55.4585143,146.119286 L148.6328,53.5775714 Z" id="Fill-3" fill="#E0DBE8"></path>
            <path d="M61.2064857,50.8468286 L142.885057,50.8468286 C147.563057,50.8468286 151.355343,54.6388286 151.355343,59.3171143 L151.355343,140.076257 C151.355343,144.754257 147.563057,148.546543 142.885057,148.546543 L61.2064857,148.546543 C56.5284857,148.546543 52.7362,144.754257 52.7362,140.076257 L52.7362,59.3171143 C52.7362,54.6388286 56.5284857,50.8468286 61.2064857,50.8468286" id="Fill-4" fill="#FFFFFF"></path>
            <path d="M61.2064857,50.8468286 L142.885057,50.8468286 C147.563057,50.8468286 151.355343,54.6388286 151.355343,59.3171143 L151.355343,140.076257 C151.355343,144.754257 147.563057,148.546543 142.885057,148.546543 L61.2064857,148.546543 C56.5284857,148.546543 52.7362,144.754257 52.7362,140.076257 L52.7362,59.3171143 C52.7362,54.6388286 56.5284857,50.8468286 61.2064857,50.8468286 Z" id="Stroke-5" stroke="#523C64" stroke-width="5"></path>
            <path d="M140.776771,61.7876571 C140.776771,61.7876571 127.1602,75.2762286 120.499057,81.9528 C114.249914,88.2162286 102.045629,100.6068 102.045629,100.6068 L63.1899143,62.0188 L140.776771,61.7876571 Z" id="Fill-6" fill="#E0DBE8"></path>
            <polygon id="Fill-7" fill="#D1CADC" points="120.801886 81.6473143 120.801886 119.567029 102.045886 100.606743"></polygon>
            <polygon id="Fill-8" fill="#C1B8D1" points="120.801886 81.6473143 140.767314 61.7693143 140.767314 99.6896 120.801886 119.567029"></polygon>
            <path d="M101.138114,138.832857 C101.138114,138.832857 114.257257,126.015714 120.801829,119.566857 C127.4624,113.003714 140.754686,99.7168571 140.754686,99.7168571 L140.754686,138.754 L101.138114,138.832857 Z" id="Fill-9" fill="#B2A6C5"></path>
            <polygon id="Fill-10" fill="#8C79A8" points="120.801886 119.572543 101.138171 138.832829 82.6853143 119.572543 102.045886 100.606829"></polygon>
            <polygon id="Fill-11" fill="#654D8B" points="63.0742286 138.873057 82.6853714 119.567057 101.138229 138.832771"></polygon>
            <polygon id="Fill-12" fill="#3F1F6E" points="63.0742286 61.9034571 102.045657 100.606886 63.0742286 138.873171"></polygon>
        </g>
        <path d="M99.9502,0.272885714 C44.7493429,0.272885714 -8.57142857e-05,45.6900286 -8.57142857e-05,101.7146 C-8.57142857e-05,157.739171 44.7493429,203.155743 99.9502,203.155743 C155.151629,203.155743 199.901057,157.739171 199.901057,101.7146 C199.901057,45.6900286 155.151629,0.272885714 99.9502,0.272885714 Z" id="Stroke-14" stroke="#210438" stroke-width="6"></path>
    </g>
</svg>