
<svg width="130px" height="130px" viewBox="8 454 130 130" version="1.1" xmlns="http://www.w3.org/2000/svg" xmlns:xlink="http://www.w3.org/1999/xlink">
    <!-- Generator: Sketch 40.3 (33839) - http://www.bohemiancoding.com/sketch -->
    <desc>Created with Sketch.</desc>
    <defs>
        <polygon id="path-1" points="0 130 130 130 130 0 0 0"></polygon>
        <polygon id="path-3" points="0 130 130 130 130 0 0 0"></polygon>
    </defs>
    <g id="products-icon" stroke="none" stroke-width="1" fill="none" fill-rule="evenodd" transform="translate(8.000000, 454.000000)">
        <g id="Group-4" transform="translate(8.125000, 8.125000)" fill="#FFFFFF">
            <path d="M113.75,56.875 C113.75,88.2860875 88.2860875,113.75 56.875,113.75 C25.46375,113.75 0,88.2860875 0,56.875 C0,25.46375 25.46375,0 56.875,0 C88.2860875,0 113.75,25.46375 113.75,56.875" id="Fill-1"></path>
        </g>
        <g id="Group-17">
            <path d="M65,8.12547125 C33.58875,8.12547125 8.125,33.5892212 8.125,65.0001462 C8.125,96.4110712 33.58875,121.874496 65,121.874496 C96.410925,121.874496 121.875,96.4110712 121.875,65.0001462 C121.875,33.5892212 96.410925,8.12547125 65,8.12547125 Z" id="Stroke-5" stroke="#3F1F6E" stroke-width="3"></path>
            <mask id="mask-2" fill="white">
                <use xlink:href="#path-1"></use>
            </mask>
            <g id="Clip-8"></g>
            <path d="M50.9934263,43.5358787 C50.9934263,43.5358787 48.0815888,45.9623287 46.1403638,49.5212412 C44.1991388,53.0801537 44.3613138,56.8007537 44.3613138,56.8007537 L39.9541513,56.8043287 C39.9541513,56.8043287 39.5077638,62.6244287 40.8162138,66.6536162 C42.1241763,70.6823162 44.6845263,73.9482412 44.6845263,73.9482412 L41.1254513,77.1836162 C41.1254513,77.1836162 44.6669763,82.0526037 49.2130763,84.6396037 C53.7590138,87.2262787 59.4070263,87.5865412 59.5674138,87.5368162 L59.7292638,93.8458787 C59.7292638,93.8458787 69.0884513,94.3896037 74.9238263,91.9340662 C80.7592013,89.4780412 83.5093513,86.0809787 83.5093513,86.0809787 L87.8770263,90.2869662 C87.8770263,90.2869662 95.3237513,84.5281287 98.7154513,75.5660912 C102.106989,66.6042162 101.465601,56.8007537 101.465601,56.8007537 L66.0381638,56.8007537 L66.0378388,43.0504912 C66.0378388,43.0504912 62.3018013,42.5465787 59.0644763,43.6608412 C55.8274763,44.7749412 53.9052638,46.7710912 53.9052638,46.7710912 L50.9934263,43.5358787 Z" id="Fill-7" fill="#FFFFFF" mask="url(#mask-2)"></path>
            <path d="M50.9934263,43.5358787 C50.9934263,43.5358787 48.0815888,45.9623287 46.1403638,49.5212412 C44.1991388,53.0801537 44.3613138,56.8007537 44.3613138,56.8007537 L39.9541513,56.8043287 C39.9541513,56.8043287 39.5077638,62.6244287 40.8162138,66.6536162 C42.1241763,70.6823162 44.6845263,73.9482412 44.6845263,73.9482412 L41.1254513,77.1836162 C41.1254513,77.1836162 44.6669763,82.0526037 49.2130763,84.6396037 C53.7590138,87.2262787 59.4070263,87.5865412 59.5674138,87.5368162 L59.7292638,93.8458787 C59.7292638,93.8458787 69.0884513,94.3896037 74.9238263,91.9340662 C80.7592013,89.4780412 83.5093513,86.0809787 83.5093513,86.0809787 L87.8770263,90.2869662 C87.8770263,90.2869662 95.3237513,84.5281287 98.7154513,75.5660912 C102.106989,66.6042162 101.465601,56.8007537 101.465601,56.8007537 L66.0381638,56.8007537 L66.0378388,43.0504912 C66.0378388,43.0504912 62.3018013,42.5465787 59.0644763,43.6608412 C55.8274763,44.7749412 53.9052638,46.7710912 53.9052638,46.7710912 L50.9934263,43.5358787 Z" id="Stroke-9" stroke="#3F1F6E" stroke-width="2.5" stroke-linejoin="round" mask="url(#mask-2)"></path>
            <path d="M63.0698412,90.1933663 C63.0698412,90.1933663 68.1346412,90.7400163 73.9844787,88.2393038 C79.8346412,85.7384288 83.4587162,80.8211788 83.4587162,80.8211788 L62.8028537,59.9667413 L63.0698412,90.1933663 Z" id="Fill-10" fill="#654D8B" mask="url(#mask-2)"></path>
            <path d="M45.997185,77.2743075 C45.997185,77.2743075 49.221835,80.713295 53.581385,82.4564325 C57.94126,84.19957 63.0201975,84.3508575 63.0201975,84.3508575 L62.8027725,59.9667575 L45.997185,77.2743075 Z" id="Fill-11" fill="#8C79A8" mask="url(#mask-2)"></path>
            <path d="M44.8828412,67.5442138 C45.8581662,69.7018888 47.9198037,72.3306513 49.3759662,73.9483388 L45.9971037,77.2742263 L62.8028537,59.9666763 L43.0256287,59.8786013 C43.0256287,59.8786013 43.2099037,63.8424638 44.8828412,67.5442138" id="Fill-12" fill="#B2A6C5" mask="url(#mask-2)"></path>
            <path d="M48.1539175,53.6103262 C47.62433,55.1711387 47.27268,58.2566887 47.27268,59.8743762 L43.0257425,59.8786012 L62.802805,59.9666762 L51.3122675,48.3614137 C51.3122675,48.3614137 49.1877425,50.5650762 48.1539175,53.6103262" id="Fill-13" fill="#C1B8D1" mask="url(#mask-2)"></path>
            <path d="M62.802805,46.1240487 C62.802805,46.1240487 61.3362425,45.9113362 58.4307425,47.1533237 C56.9415925,47.7901612 54.55268,49.3594237 53.420055,50.4918862 L51.2878925,48.3346987 L62.802805,59.9667737 L62.802805,46.1240487 Z" id="Fill-14" fill="#D1CADC" mask="url(#mask-2)"></path>
            <path d="M87.6242412,85.1432563 C87.6242412,85.1432563 92.7358412,80.5358937 95.5249912,73.8642938 C98.3146287,67.1925313 97.7486412,60.1174437 97.7486412,60.1174437 L62.8028537,59.9666438 L87.6242412,85.1432563 Z" id="Fill-15" fill="#3F1F6E" mask="url(#mask-2)"></path>
        </g>
        <g id="Group-29">
            <path d="M65,8.12547125 C33.58875,8.12547125 8.125,33.5892212 8.125,65.0001462 C8.125,96.4110712 33.58875,121.874496 65,121.874496 C96.410925,121.874496 121.875,96.4110712 121.875,65.0001462 C121.875,33.5892212 96.410925,8.12547125 65,8.12547125 Z" id="Stroke-18" stroke="#210438" stroke-width="3"></path>
            <mask id="mask-4" fill="white">
                <use xlink:href="#path-3"></use>
            </mask>
            <g id="Clip-21"></g>
            <path d="M50.9934263,43.5358787 C50.9934263,43.5358787 48.0815888,45.9623287 46.1403638,49.5212412 C44.1991388,53.0801537 44.3613138,56.8007537 44.3613138,56.8007537 L39.9541513,56.8043287 C39.9541513,56.8043287 39.5077638,62.6244287 40.8162138,66.6536162 C42.1241763,70.6823162 44.6845263,73.9482412 44.6845263,73.9482412 L41.1254513,77.1836162 C41.1254513,77.1836162 44.6669763,82.0526037 49.2130763,84.6396037 C53.7590138,87.2262787 59.4070263,87.5865412 59.5674138,87.5368162 L59.7292638,93.8458787 C59.7292638,93.8458787 69.0884513,94.3896037 74.9238263,91.9340662 C80.7592013,89.4780412 83.5093513,86.0809787 83.5093513,86.0809787 L87.8770263,90.2869662 C87.8770263,90.2869662 95.3237513,84.5281287 98.7154513,75.5660912 C102.106989,66.6042162 101.465601,56.8007537 101.465601,56.8007537 L66.0381638,56.8007537 L66.0378388,43.0504912 C66.0378388,43.0504912 62.3018013,42.5465787 59.0644763,43.6608412 C55.8274763,44.7749412 53.9052638,46.7710912 53.9052638,46.7710912 L50.9934263,43.5358787 Z" id="Fill-20" fill="#FFFFFF" mask="url(#mask-4)"></path>
            <path d="M50.9934263,43.5358787 C50.9934263,43.5358787 48.0815888,45.9623287 46.1403638,49.5212412 C44.1991388,53.0801537 44.3613138,56.8007537 44.3613138,56.8007537 L39.9541513,56.8043287 C39.9541513,56.8043287 39.5077638,62.6244287 40.8162138,66.6536162 C42.1241763,70.6823162 44.6845263,73.9482412 44.6845263,73.9482412 L41.1254513,77.1836162 C41.1254513,77.1836162 44.6669763,82.0526037 49.2130763,84.6396037 C53.7590138,87.2262787 59.4070263,87.5865412 59.5674138,87.5368162 L59.7292638,93.8458787 C59.7292638,93.8458787 69.0884513,94.3896037 74.9238263,91.9340662 C80.7592013,89.4780412 83.5093513,86.0809787 83.5093513,86.0809787 L87.8770263,90.2869662 C87.8770263,90.2869662 95.3237513,84.5281287 98.7154513,75.5660912 C102.106989,66.6042162 101.465601,56.8007537 101.465601,56.8007537 L66.0381638,56.8007537 L66.0378388,43.0504912 C66.0378388,43.0504912 62.3018013,42.5465787 59.0644763,43.6608412 C55.8274763,44.7749412 53.9052638,46.7710912 53.9052638,46.7710912 L50.9934263,43.5358787 Z" id="Stroke-22" stroke="#523C64" stroke-width="5" mask="url(#mask-4)"></path>
            <path d="M73.9844787,88.2392388 C79.8346412,85.7383638 83.4587162,80.8212763 83.4587162,80.8212763 L62.8028537,59.9666763 L63.0698412,90.1933013 C63.0698412,90.1933013 68.1346412,90.7399513 73.9844787,88.2392388" id="Fill-23" fill="#654D8B" mask="url(#mask-4)"></path>
            <path d="M45.997185,77.2743075 C45.997185,77.2743075 49.221835,80.713295 53.581385,82.4564325 C57.94126,84.19957 63.0201975,84.3508575 63.0201975,84.3508575 L62.8027725,59.9667575 L45.997185,77.2743075 Z" id="Fill-24" fill="#8C79A8" mask="url(#mask-4)"></path>
            <path d="M44.8828412,67.5442138 C45.8581662,69.7018888 47.9198037,72.3306513 49.3759662,73.9483388 L45.9971037,77.2742263 L62.8028537,59.9666763 L43.0256287,59.8786013 C43.0256287,59.8786013 43.2099037,63.8424638 44.8828412,67.5442138" id="Fill-25" fill="#B2A6C5" mask="url(#mask-4)"></path>
            <path d="M48.1539175,53.6103262 C47.62433,55.1711387 47.27268,58.2566887 47.27268,59.8743762 L43.0257425,59.8786012 L62.802805,59.9666762 L51.3122675,48.3614137 C51.3122675,48.3614137 49.1877425,50.5650762 48.1539175,53.6103262" id="Fill-26" fill="#C1B8D1" mask="url(#mask-4)"></path>
            <path d="M62.802805,46.1240487 C62.802805,46.1240487 61.3362425,45.9113362 58.4307425,47.1533237 C56.9415925,47.7901612 54.55268,49.3594237 53.420055,50.4918862 L51.2878925,48.3346987 L62.802805,59.9667737 L62.802805,46.1240487 Z" id="Fill-27" fill="#D1CADC" mask="url(#mask-4)"></path>
            <path d="M87.6242412,85.1432563 C87.6242412,85.1432563 92.7358412,80.5358937 95.5249912,73.8642938 C98.3146287,67.1925313 97.7486412,60.1174437 97.7486412,60.1174437 L62.8028537,59.9666438 L87.6242412,85.1432563 Z" id="Fill-28" fill="#3F1F6E" mask="url(#mask-4)"></path>
        </g>
    </g>
</svg>