
<svg width="207px" height="206px" viewBox="778 337 207 206" version="1.1" xmlns="http://www.w3.org/2000/svg" xmlns:xlink="http://www.w3.org/1999/xlink">
    <!-- Generator: Sketch 40.3 (33839) - http://www.bohemiancoding.com/sketch -->
    <desc>Created with Sketch.</desc>
    <defs></defs>
    <g id="Page-1" stroke="none" stroke-width="1" fill="none" fill-rule="evenodd" transform="translate(781.000000, 340.000000)">
        <g id="Group-14">
            <path d="M200,100 C200,155.228286 155.228286,200 100,200 C44.7714286,200 0,155.228286 0,100 C0,44.7714286 44.7714286,0 100,0 C155.228286,0 200,44.7714286 200,100" id="Fill-1" fill="#FFFFFF"></path>
            <path d="M100,0.298542857 C155.228,0.298542857 200,44.9365429 200,99.9999714 C200,155.064257 155.228,199.7014 100,199.7014 C44.7714286,199.7014 0,155.064257 0,99.9999714 C0,44.9365429 44.7714286,0.298542857 100,0.298542857 Z" id="Stroke-3" stroke="#3F1F6E" stroke-width="3"></path>
            <path d="M100,83.2834857 C103.195143,80.1389143 97.9628571,74.4712 100,70.1492 C105.434857,58.6180571 114.925429,46.2686286 114.925429,46.2686286 L196.418,126.268629 C196.418,126.268629 192.238571,151.940343 165.074571,174.925486 C137.910571,197.910343 105.970286,198.806057 105.970286,198.806057 L37.9105714,131.3432 C37.9105714,131.3432 86.4474286,96.6226286 100,83.2834857" id="Fill-4" fill="#E0DBE8"></path>
            <path d="M81.4301143,151.0424 C87.8552571,150.310114 87.2126857,148.1144 85.2852571,144.455257 C84.0926857,142.1904 83.3575429,141.527543 83.3575429,137.8684 C83.3575429,123.035829 112.912686,124.6944 113.319257,136.4044 C113.585543,144.097829 103.884114,146.612686 105.845543,148.846686 C107.772686,151.0424 119.337829,151.0424 119.337829,151.0424 L132.830114,151.0424 C132.830114,151.0424 137.327257,151.0424 137.327257,143.723257 L137.969829,81.5129714 C137.969829,76.3892571 136.042686,74.9255429 131.544971,74.9255429 L67.2952571,74.9255429 C67.2952571,74.9255429 60.8704,74.9255429 60.8704,82.2446857 L60.8704,146.650971 L64.7255429,151.0424 L80.7875429,151.0424 L81.4301143,151.0424 Z" id="Fill-5" fill="#B2A6C5"></path>
            <path d="M81.4301143,151.0424 C87.8552571,150.310114 87.2126857,148.1144 85.2852571,144.455257 C84.0926857,142.1904 83.3575429,141.527543 83.3575429,137.8684 C83.3575429,123.035829 112.912686,124.6944 113.319257,136.4044 C113.585543,144.097829 103.884114,146.612686 105.845543,148.846686 C107.772686,151.0424 119.337829,151.0424 119.337829,151.0424 L132.830114,151.0424 C132.830114,151.0424 137.327257,151.0424 137.327257,143.723257 L137.969829,81.5129714 C137.969829,76.3892571 136.042686,74.9255429 131.544971,74.9255429 L67.2952571,74.9255429 C67.2952571,74.9255429 60.8704,74.9255429 60.8704,82.2446857 L60.8704,146.650971 L64.7255429,151.0424 L80.7875429,151.0424 L81.4301143,151.0424 Z" id="Stroke-6" stroke="#3F1F6E" stroke-width="6" stroke-linecap="round"></path>
            <path d="M81.4301143,151.0424 C87.8552571,150.310114 87.2126857,148.1144 85.2852571,144.455257 C84.0926857,142.1904 83.3575429,141.527543 83.3575429,137.8684 C83.3575429,123.035829 112.912686,124.6944 113.319257,136.4044 C113.585543,144.097829 103.884114,146.612686 105.845543,148.846686 C107.772686,151.0424 119.337829,151.0424 119.337829,151.0424 L132.830114,151.0424 C132.830114,151.0424 137.327257,151.0424 137.327257,143.723257 L137.969829,81.5129714 C137.969829,76.3892571 136.042686,74.9255429 131.544971,74.9255429 L67.2952571,74.9255429 C67.2952571,74.9255429 60.8704,74.9255429 60.8704,82.2446857 L60.8704,146.650971 L64.7255429,151.0424 L80.7875429,151.0424 L81.4301143,151.0424 Z" id="Stroke-7" stroke="#3F1F6E" stroke-width="6" stroke-linecap="round"></path>
            <g id="Group-10" transform="translate(60.857143, 74.285714)">
                <path d="M67.4753143,0.213457143 L73.2578857,0.213457143 C76.4701714,0.213457143 77.1127429,2.02545714 77.1127429,5.36345714 C77.1127429,11.2488857 76.9373143,19.5266 77.1127429,23.0197429 C77.2310286,25.3637429 77.6981714,25.7568857 77.9256,25.9626 C78.7376,26.6977429 79.8530286,25.9626 79.8530286,25.9626 C79.8530286,25.9626 86.0856,20.2560286 88.8478857,18.6057429 C91.0110286,17.3137429 91.7733143,17.1340286 94.6301714,17.1340286 C101.055029,17.1340286 104.2676,25.9626 104.2676,32.5834571 C104.2676,35.4206 103.720743,42.3106 101.6976,45.0903143 C98.9998857,48.7971714 95.5230286,50.7511714 90.7753143,48.0328857 C79.2104571,41.4114571 67.1244571,35.4068857 48.3704571,36.9974571 C29.6167429,38.5886 20.7910286,50.1948857 20.1007429,56.1251714 C18.8156,67.1606 26.9981714,71.5748857 25.2407429,74.5180286 C24.3341714,76.0348857 21.2153143,76.7248857 17.3607429,76.7248857 L3.86817143,76.7248857 C3.86817143,76.7248857 0.0133142857,75.9888857 0.0133142857,70.8391714" id="Fill-8" fill="#FFFFFF"></path>
                <path d="M67.4753143,0.213457143 L73.2578857,0.213457143 C76.4701714,0.213457143 77.1127429,2.02545714 77.1127429,5.36345714 C77.1127429,11.2488857 76.9373143,19.5266 77.1127429,23.0197429 C77.2310286,25.3637429 77.6981714,25.7568857 77.9256,25.9626 C78.7376,26.6977429 79.8530286,25.9626 79.8530286,25.9626 C79.8530286,25.9626 86.0856,20.2560286 88.8478857,18.6057429 C91.0110286,17.3137429 91.7733143,17.1340286 94.6301714,17.1340286 C101.055029,17.1340286 104.2676,25.9626 104.2676,32.5834571 C104.2676,35.4206 103.720743,42.3106 101.6976,45.0903143 C98.9998857,48.7971714 95.5230286,50.7511714 90.7753143,48.0328857 C79.2104571,41.4114571 67.1244571,35.4068857 48.3704571,36.9974571 C29.6167429,38.5886 20.7910286,50.1948857 20.1007429,56.1251714 C18.8156,67.1606 26.9981714,71.5748857 25.2407429,74.5180286 C24.3341714,76.0348857 21.2153143,76.7248857 17.3607429,76.7248857 L3.86817143,76.7248857 C3.86817143,76.7248857 0.0133142857,75.9888857 0.0133142857,70.8391714" id="Stroke-9" stroke="#3F1F6E" stroke-width="6" stroke-linecap="round"></path>
            </g>
            <g id="Group-13" transform="translate(34.285714, 42.000000)">
                <path d="M26.5846857,103.124857 C26.5846857,103.124857 26.9244,81.7411429 25.6398286,80.2697143 C24.3546857,78.7988571 21.7846857,81.7411429 21.7846857,81.7411429 C21.7846857,81.7411429 18.4246857,85.9891429 15.6624,88.0217143 C13.4986857,89.6131429 12.4341143,90.5694286 9.57668571,90.5694286 C3.15182857,90.5694286 0.241828571,78.9608571 0.241828571,70.806 C0.241828571,67.3114286 0.789542857,58.8254286 2.81182857,55.402 C5.50982857,50.8365714 7.80097143,49.3171429 12.1475429,53.0494286 C22.4272571,61.8777143 31.4221143,70.8514286 51.9818286,55.402 C52.3898286,55.096 60.7749714,47.9197143 59.0492571,36.8642857 C57.3918286,26.2422857 46.1806857,20.728 46.1992571,14.0582857 C46.2424,-1.31257143 70.4501143,-2.506 79.2695429,3.80742857 C82.1784,5.88942857 82.9601143,10.9985714 82.4818286,13.3708571 C80.5544,22.9345714 74.1669714,25.7802857 73.1844,28.772 C72.2024,31.7634286 77.3421143,32.4991429 77.3421143,32.4991429 L94.6892571,32.4991429" id="Fill-11" fill="#FFFFFF"></path>
                <path d="M26.5846857,103.124857 C26.5846857,103.124857 26.9244,81.7411429 25.6398286,80.2697143 C24.3546857,78.7988571 21.7846857,81.7411429 21.7846857,81.7411429 C21.7846857,81.7411429 18.4246857,85.9891429 15.6624,88.0217143 C13.4986857,89.6131429 12.4341143,90.5694286 9.57668571,90.5694286 C3.15182857,90.5694286 0.241828571,78.9608571 0.241828571,70.806 C0.241828571,67.3114286 0.789542857,58.8254286 2.81182857,55.402 C5.50982857,50.8365714 7.80097143,49.3171429 12.1475429,53.0494286 C22.4272571,61.8777143 31.4221143,70.8514286 51.9818286,55.402 C52.3898286,55.096 60.7749714,47.9197143 59.0492571,36.8642857 C57.3918286,26.2422857 46.1806857,20.728 46.1992571,14.0582857 C46.2424,-1.31257143 70.4501143,-2.506 79.2695429,3.80742857 C82.1784,5.88942857 82.9601143,10.9985714 82.4818286,13.3708571 C80.5544,22.9345714 74.1669714,25.7802857 73.1844,28.772 C72.2024,31.7634286 77.3421143,32.4991429 77.3421143,32.4991429 L94.6892571,32.4991429" id="Stroke-12" stroke="#3F1F6E" stroke-width="6" stroke-linecap="round"></path>
            </g>
        </g>
        <path d="M100,0.298542857 C155.228,0.298542857 200,44.9365429 200,99.9999714 C200,155.064257 155.228,199.7014 100,199.7014 C44.7714286,199.7014 0,155.064257 0,99.9999714 C0,44.9365429 44.7714286,0.298542857 100,0.298542857 Z" id="Stroke-15" stroke="#210438" stroke-width="6"></path>
    </g>
</svg>