<svg width="354px" height="354px" viewBox="-2 -2 358 358" version="1.1" xmlns="http://www.w3.org/2000/svg" xmlns:xlink="http://www.w3.org/1999/xlink" xmlns:sketch="http://www.bohemiancoding.com/sketch/ns">
    <defs>
        <path id="path-1" d="M141.077856,137.276587 C141.077856,137.276587 157.960899,124.54041 168.287911,104.861607 C178.614923,85.182804 178.777114,63.3705455 178.777114,63.3705455 L71.828867,53.5486964 L141.077856,137.276587 L141.077856,137.276587 Z"></path>
        <path id="path-2" d="M141.077856,137.276587 C141.077856,137.276587 157.960899,124.54041 168.287911,104.861607 C178.614923,85.182804 178.777114,63.3705455 178.777114,63.3705455 L71.828867,53.5486964 L141.077856,137.276587 L141.077856,137.276587 Z"></path>
    </defs>
    <g id="Page-1" stroke="none" stroke-width="1" fill="none" fill-rule="evenodd" sketch:type="MSPage">
        <g id="MOVELLUS-DESKTOP-2" sketch:type="MSArtboardGroup" transform="translate(-858.000000, -2891.000000)">
            <g id="SHELL-+-SHELL-4" sketch:type="MSLayerGroup" transform="translate(860.000000, 2893.000000)">
                <g id="SHELL">
                    <path d="M141.690341,229.271964 C149.543739,231.797156 164.390018,230.083247 170.987216,233.546048 C177.626068,237.030713 164.627301,251.582112 172.585227,252.245166 C184.811743,253.263879 201.120192,247.77674 214.666193,239.422914 C222.138457,234.814765 227.566857,225.400486 233.84233,224.99788 C242.108387,224.467567 241.130813,237.773887 248.224432,235.14883 C267.677213,227.950153 274.666597,171.170876 279.403413,165.056819 C283.178499,160.184117 177.982955,149.147727 177.982955,149.147727 L177.982955,106.889205 L220.241477,149.147728 L287.855114,149.147728 L346.519886,209.303978 C346.519886,209.303978 336.576705,250.568182 306.250001,290.838069 C275.923296,331.107955 226.207386,341.548296 226.207386,341.548296 L100.426136,214.772728 C100.426136,214.772728 125.862338,224.182608 141.690341,229.271964 Z" id="Line" fill="#E0DBE8" sketch:type="MSShapeGroup"></path>
                    <path d="M174.792227,0.0523325359 C78.2571458,0.0523325359 5.93181361e-14,78.308781 0,174.843002 C0,271.377224 78.2571458,349.633672 174.792227,349.633672 C271.327309,349.633672 349.584455,271.377224 349.584455,174.843002 C349.584455,78.308781 271.327309,0.0523325359 174.792227,0.0523325359 L174.792227,0.0523325359 Z" id="BADGE-8" stroke="#3F206E" stroke-width="3" opacity="0.782241138" sketch:type="MSShapeGroup"></path>
                    <g id="Group" transform="translate(194.294103, 182.674053) rotate(-5.000000) translate(-194.294103, -182.674053) translate(98.342399, 103.625757)">
                        <path d="M40.0745356,0.0815753099 C40.0745356,0.0815753099 30.5097695,6.73063911 23.6132963,17.1065546 C16.7168231,27.48247 16.2154962,38.9169498 16.2154962,38.9169498 L2.72331373,37.7470298 C2.72331373,37.7470298 -0.202412622,55.4466609 2.72331374,68.1316538 C5.64904011,80.8166468 12.6130208,91.5019375 12.6130208,91.5019375 L0.850535574,100.454018 C0.850535574,100.454018 10.388358,116.308641 23.6132954,125.446154 C36.8382328,134.583668 54.0339463,137.199157 54.5378637,137.090765 L53.3432512,156.449519 C53.3432512,156.449519 81.8521078,160.620918 100.375009,154.665584 C118.89791,148.71025 128.227388,139.04625 128.227388,139.04625 L140.473026,153.093118 C140.473026,153.093118 164.815205,137.45604 177.598982,110.926918 C190.382758,84.3977954 191.044838,54.2125327 191.044838,54.2125327 L82.5813077,44.7232062 L86.2643784,2.62548924 C86.2643784,2.62548924 74.9598894,0.0815753099 64.7512339,2.62548912 C54.5425785,5.16940293 48.1227384,10.7668656 48.1227384,10.7668656 L40.0745356,0.0815753099 Z" id="Line" stroke="#3F206E" stroke-width="2.5" stroke-linejoin="round" fill="#FFFFFF" sketch:type="MSShapeGroup"></path>
                        <path d="M64.5496393,146.161438 C64.5496393,146.161438 79.9090408,149.192162 98.4894922,143.102496 C117.069944,137.01283 129.482281,122.929715 129.482281,122.929715 L71.8288634,53.5486944 L64.5496393,146.161438 L64.5496393,146.161438 Z" id="Line-25" fill="#654D8B" sketch:type="MSShapeGroup"></path>
                        <path d="M15.7409779,102.036004 C15.7409779,102.036004 24.6919881,113.427908 37.5727244,119.932375 C50.4534608,126.436842 65.9626529,128.260394 65.9626529,128.260394 L71.8288653,53.548693 L15.7409779,102.036004 L15.7409779,102.036004 Z" id="Line-26" fill="#8C79A8" sketch:type="MSShapeGroup"></path>
                        <path d="M14.9357942,71.9482521 C17.3434251,78.8150158 22.9516685,87.415872 26.9757708,92.7585154 L15.7409772,102.036003 L71.8288656,53.5486951 L11.3028614,47.9814862 C11.3028614,47.9814862 10.8050773,60.1671039 14.9357942,71.9482521 Z" id="Line-27" fill="#B2A6C5" sketch:type="MSShapeGroup"></path>
                        <path d="M28.6826796,30.1646687 C26.6428835,34.8010372 24.7403325,44.1542966 24.3070299,49.1069698 L11.3028615,47.9814869 L71.828865,53.5486956 L39.7571748,14.9402393 C39.7571748,14.9402393 32.6625933,21.1184964 28.6826796,30.1646687 Z" id="Line-28" fill="#C1B8D1" sketch:type="MSShapeGroup"></path>
                        <path d="M75.5357608,11.168961 C75.5357608,11.168961 71.1033044,10.1245064 61.8748018,13.1491099 C57.1449849,14.6992878 49.4105237,18.8644629 45.640341,22.0280213 L39.6899729,14.8529113 L71.828866,53.5486969 L75.5357608,11.168961 Z" id="Line-29" fill="#D1CADC" sketch:type="MSShapeGroup"></path>
                        <g id="Line-24">
                            <use fill="#3F206E" fill-rule="evenodd" sketch:type="MSShapeGroup" xlink:href="#path-1"></use>
                            <use fill="none" xlink:href="#path-1"></use>
                        </g>
                    </g>
                </g>
                <g id="SHELL-2">
                    <path d="M174.792227,0.0523325359 C78.2571458,0.0523325359 5.93181361e-14,78.308781 0,174.843002 C0,271.377224 78.2571458,349.633672 174.792227,349.633672 C271.327309,349.633672 349.584455,271.377224 349.584455,174.843002 C349.584455,78.308781 271.327309,0.0523325359 174.792227,0.0523325359 L174.792227,0.0523325359 Z" id="BADGE-8" stroke="#3F206E" stroke-width="3" fill="#FFFFFF" sketch:type="MSShapeGroup"></path>
                    <path d="M141.690341,229.271964 C149.543739,231.797156 164.390018,230.083247 170.987216,233.546048 C177.626068,237.030713 164.627301,251.582112 172.585227,252.245166 C184.811743,253.263879 201.120192,247.77674 214.666193,239.422914 C222.138457,234.814765 227.566857,225.400486 233.84233,224.99788 C242.108387,224.467567 241.130813,237.773887 248.224432,235.14883 C267.677213,227.950153 274.666597,171.170876 279.403413,165.056819 C283.178499,160.184117 177.982955,149.147727 177.982955,149.147727 L177.982955,106.889205 L220.241477,149.147728 L287.855114,149.147728 L346.519886,209.303978 C346.519886,209.303978 336.576705,250.568182 306.250001,290.838069 C275.923296,331.107955 226.207386,341.548296 226.207386,341.548296 L100.426136,214.772728 C100.426136,214.772728 125.862338,224.182608 141.690341,229.271964 Z" id="Line" fill="#E0DBE8" sketch:type="MSShapeGroup"></path>
                    <path d="M174.792227,0.0523325359 C78.2571458,0.0523325359 5.93181361e-14,78.308781 0,174.843002 C0,271.377224 78.2571458,349.633672 174.792227,349.633672 C271.327309,349.633672 349.584455,271.377224 349.584455,174.843002 C349.584455,78.308781 271.327309,0.0523325359 174.792227,0.0523325359 L174.792227,0.0523325359 Z" id="BADGE-9" stroke="#3F206E" stroke-width="3" opacity="0.465951493" fill="#FFFFFF" sketch:type="MSShapeGroup"></path>
                    <g id="Group" transform="translate(194.294103, 182.674053) rotate(-5.000000) translate(-194.294103, -182.674053) translate(98.342399, 103.625757)">
                        <path d="M40.0745356,0.0815753099 C40.0745356,0.0815753099 30.5097695,6.73063911 23.6132963,17.1065546 C16.7168231,27.48247 16.2154962,38.9169498 16.2154962,38.9169498 L2.72331373,37.7470298 C2.72331373,37.7470298 -0.202412622,55.4466609 2.72331374,68.1316538 C5.64904011,80.8166468 12.6130208,91.5019375 12.6130208,91.5019375 L0.850535574,100.454018 C0.850535574,100.454018 10.388358,116.308641 23.6132954,125.446154 C36.8382328,134.583668 54.0339463,137.199157 54.5378637,137.090765 L53.3432512,156.449519 C53.3432512,156.449519 81.8521078,160.620918 100.375009,154.665584 C118.89791,148.71025 128.227388,139.04625 128.227388,139.04625 L140.473026,153.093118 C140.473026,153.093118 164.815205,137.45604 177.598982,110.926918 C190.382758,84.3977954 191.044838,54.2125327 191.044838,54.2125327 L82.5813077,44.7232062 L86.2643784,2.62548924 C86.2643784,2.62548924 74.9598894,0.0815753099 64.7512339,2.62548912 C54.5425785,5.16940293 48.1227384,10.7668656 48.1227384,10.7668656 L40.0745356,0.0815753099 Z" id="Line" stroke="#3F206E" stroke-width="2.5" stroke-linejoin="round" fill="#FFFFFF" sketch:type="MSShapeGroup"></path>
                        <path d="M64.5496393,146.161438 C64.5496393,146.161438 79.9090408,149.192162 98.4894922,143.102496 C117.069944,137.01283 129.482281,122.929715 129.482281,122.929715 L71.8288634,53.5486944 L64.5496393,146.161438 L64.5496393,146.161438 Z" id="Line-25" fill="#654D8B" sketch:type="MSShapeGroup"></path>
                        <path d="M15.7409779,102.036004 C15.7409779,102.036004 24.6919881,113.427908 37.5727244,119.932375 C50.4534608,126.436842 65.9626529,128.260394 65.9626529,128.260394 L71.8288653,53.548693 L15.7409779,102.036004 L15.7409779,102.036004 Z" id="Line-26" fill="#8C79A8" sketch:type="MSShapeGroup"></path>
                        <path d="M14.9357942,71.9482521 C17.3434251,78.8150158 22.9516685,87.415872 26.9757708,92.7585154 L15.7409772,102.036003 L71.8288656,53.5486951 L11.3028614,47.9814862 C11.3028614,47.9814862 10.8050773,60.1671039 14.9357942,71.9482521 Z" id="Line-27" fill="#B2A6C5" sketch:type="MSShapeGroup"></path>
                        <path d="M28.6826796,30.1646687 C26.6428835,34.8010372 24.7403325,44.1542966 24.3070299,49.1069698 L11.3028615,47.9814869 L71.828865,53.5486956 L39.7571748,14.9402393 C39.7571748,14.9402393 32.6625933,21.1184964 28.6826796,30.1646687 Z" id="Line-28" fill="#C1B8D1" sketch:type="MSShapeGroup"></path>
                        <path d="M75.5357608,11.168961 C75.5357608,11.168961 71.1033044,10.1245064 61.8748018,13.1491099 C57.1449849,14.6992878 49.4105237,18.8644629 45.640341,22.0280213 L39.6899729,14.8529113 L71.828866,53.5486969 L75.5357608,11.168961 Z" id="Line-29" fill="#D1CADC" sketch:type="MSShapeGroup"></path>
                        <g id="Line-24">
                            <use fill="#3F206E" fill-rule="evenodd" sketch:type="MSShapeGroup" xlink:href="#path-2"></use>
                            <use fill="none" xlink:href="#path-2"></use>
                        </g>
                    </g>
                </g>
            </g>
        </g>
    </g>
</svg>