<svg width="351px" height="350px" viewBox="0 0 351 350" version="1.1" xmlns="http://www.w3.org/2000/svg" xmlns:xlink="http://www.w3.org/1999/xlink">
    <g id="Page-1" stroke="none" stroke-width="1" fill="none" fill-rule="evenodd" sketch:type="MSPage">
        <g id="MOVELLUS-DESKTOP-2" sketch:type="MSArtboardGroup" transform="translate(-888.000000, -3505.000000)">
            <g id="tangram-3-+-shell-5" sketch:type="MSLayerGroup" transform="translate(889.000000, 3506.000000)">
                <g id="tangram-3" transform="translate(0.672088, 0.475153)" sketch:type="MSShapeGroup">
                    <path d="M0.784682988,173.690196 C0.784682988,269.30651 78.2611028,346.818847 173.83311,346.818847 C269.405117,346.818847 346.881537,269.30651 346.881537,173.690196 C346.881537,78.0738824 269.405117,0.561545026 173.83311,0.561545026 C78.2611028,0.561545026 0.784682988,78.0738824 0.784682988,173.690196 Z" id="BADGE-8" stroke="#3F206E" stroke-width="3" fill="#FFFFFF"></path>
                    <g id="Group" transform="translate(84.888432, 89.717617)">
                        <path d="M169.439483,3.80722959 L259.939467,94.8072296 C259.939467,94.8072296 261.439467,146.80723 216.439483,199.30723 C204.77678,211.962502 202.439483,214.30723 177.439483,230.80723 C140.439483,253.80723 102.939483,254.80723 98.4394825,255.30723 C97.9394825,254.80723 3.78074532,162.077737 3.78074532,162.077737 L169.439483,3.80722959 Z" id="shadow" fill="#E0DBE8"></path>
                        <rect id="Rectangle-309" stroke="#523C64" stroke-width="3" fill="#FFFFFF" x="0" y="0" width="174.413628" height="166.90846" rx="15"></rect>
                        <g id="Group-+-Rectangle-309" transform="translate(18.190378, 18.660573)">
                            <path d="M137.514254,0.0310574541 C137.514254,0.0310574541 113.432822,23.0746803 101.652113,34.4804291 C90.600216,45.1805626 69.0164344,66.3487045 69.0164344,66.3487045 L0.298281254,0.425930799 L137.514254,0.0310574541 Z" id="Triangle-1" fill="#E0DBE8"></path>
                            <path d="M67.4114022,131.652548 C67.4114022,131.652548 90.6125019,109.756705 102.187125,98.7394107 C113.966935,87.5268111 137.4747,64.8284172 137.4747,64.8284172 L137.4747,131.518098 L67.4114022,131.652548 Z" id="Triangle-4" fill="#B2A6C5"></path>
                            <path d="M0.0934812951,0.228494126 L69.0164352,66.3487031 L0.0934812951,131.721318 L0.0934812951,0.228494126 Z" id="Triangle-2" opacity="0.9" fill="#3F206E"></path>
                            <path d="M102.187125,33.9579984 L102.187125,98.7394109 L69.0164356,66.3487046 L102.187125,33.9579984 Z" id="Triangle-1" fill="#D1CADC"></path>
                            <path d="M0.0934812951,131.721318 L34.775723,98.7394109 L67.4114018,131.652547 L0.0934812951,131.721318 Z" id="Triangle-3" opacity="0.8" fill="#654D8B"></path>
                            <path d="M102.187124,98.7493939 L67.4114021,131.652548 L34.7757233,98.7493934 L69.0164343,66.3487047 L102.187124,98.7493939 Z" id="Rectangle-307" opacity="0.7" fill="#8C79A8"></path>
                            <path d="M102.187125,33.9579984 L137.49786,0 L137.49786,64.7814124 L102.187125,98.7394109 L102.187125,33.9579984 Z" id="Rectangle-308" fill="#C1B8D1"></path>
                        </g>
                    </g>
                    <rect id="Rectangle-308" x="102.508132" y="100.084602" width="155.153227" height="146.17449" rx="14"></rect>
                </g>
                <g id="shell-4" transform="translate(0.672088, 2.404565)">
                    <g></g>
                </g>
            </g>
        </g>
    </g>
</svg>