<svg width="121px" height="122px" viewBox="23 657 121 122" version="1.1" xmlns="http://www.w3.org/2000/svg" xmlns:xlink="http://www.w3.org/1999/xlink">
    <!-- Generator: Sketch 40.3 (33839) - http://www.bohemiancoding.com/sketch -->
    <desc>Created with Sketch.</desc>
    <defs></defs>
    <g id="Page-1" stroke="none" stroke-width="1" fill="none" fill-rule="evenodd" transform="translate(26.000000, 660.000000)">
        <g id="Group-12">
            <path d="M115,57.5 C115,89.2562643 89.2562643,115 57.5,115 C25.7435714,115 0,89.2562643 0,57.5 C0,25.7435714 25.7435714,0 57.5,0 C89.2562643,0 115,25.7435714 115,57.5" id="Fill-1" fill="#FFFFFF"></path>
            <path d="M57.5,22.6805793 C76.7299714,22.6805793 92.3193714,38.2699793 92.3193714,57.4999507 C92.3193714,76.730415 76.7299714,92.3194864 57.5,92.3194864 C38.2697,92.3194864 22.6806286,76.730415 22.6806286,57.4999507 C22.6806286,38.2699793 38.2697,22.6805793 57.5,22.6805793" id="Fill-4" fill="#FFFFFF"></path>
            <path d="M57.5,22.6805793 C76.7299714,22.6805793 92.3193714,38.2699793 92.3193714,57.4999507 C92.3193714,76.730415 76.7299714,92.3194864 57.5,92.3194864 C38.2697,92.3194864 22.6806286,76.730415 22.6806286,57.4999507 C22.6806286,38.2699793 38.2697,22.6805793 57.5,22.6805793 Z" id="Stroke-5" stroke="#523C64" stroke-width="5"></path>
            <path d="M58.0602471,27.1528636 C58.9813971,27.1528636 59.7285686,27.9430779 59.7285686,28.917785 C59.7285686,29.8923279 58.9813971,30.6825421 58.0602471,30.6825421 C57.1387686,30.6825421 56.3919257,29.8923279 56.3919257,28.917785 C56.3919257,27.9430779 57.1387686,27.1528636 58.0602471,27.1528636" id="Fill-6" fill="#523C64"></path>
            <path d="M58.0602471,27.1528636 C58.9813971,27.1528636 59.7285686,27.9430779 59.7285686,28.917785 C59.7285686,29.8923279 58.9813971,30.6825421 58.0602471,30.6825421 C57.1387686,30.6825421 56.3919257,29.8923279 56.3919257,28.917785 C56.3919257,27.9430779 57.1387686,27.1528636 58.0602471,27.1528636 Z" id="Stroke-7" stroke="#3F1F6E"></path>
            <path d="M83.8320757,56.3285771 C83.8320757,57.2288629 84.5619971,57.9587843 85.4622829,57.9587843 C86.3625686,57.9587843 87.0923257,57.2288629 87.0923257,56.3285771 C87.0923257,55.4282914 86.3625686,54.6986986 85.4622829,54.6986986 C84.5619971,54.6986986 83.8320757,55.4282914 83.8320757,56.3285771" id="Fill-8" fill="#C1B8D1"></path>
            <path d="M31.4515636,56.87831 C31.4515636,55.9780243 30.7216421,55.2482671 29.8211921,55.2482671 C28.9209064,55.2482671 28.1913136,55.9780243 28.1913136,56.87831 C28.1913136,57.7785957 28.9209064,58.5085171 29.8211921,58.5085171 C30.7216421,58.5085171 31.4515636,57.7785957 31.4515636,56.87831" id="Fill-9" fill="#654D8B"></path>
            <path id="Stroke-10" stroke="#8C79A8" stroke-width="11" stroke-linecap="round"></path>
            <path d="M58.1388579,57.6597186 L58.1388579,79.2222186" id="Stroke-11" stroke="#8C79A8" stroke-width="6" stroke-linecap="round"></path>
        </g>
        <g id="Group-17" stroke-width="6">
            <path d="M57.5,0 C89.2564286,0 115,25.7437357 115,57.5 C115,89.2565929 89.2564286,115 57.5,115 C25.7434071,115 0,89.2565929 0,57.5 C0,25.7437357 25.7434071,0 57.5,0 Z" id="Stroke-13" stroke="#210438"></path>
            <path d="M58.2986421,57.6597186 L66.2863779,49.6721471" id="Stroke-15" stroke="#3F1F6E" stroke-linecap="round"></path>
        </g>
    </g>
</svg>