<svg width="67px" height="72px" viewBox="0 0 67 72" version="1.1" xmlns="http://www.w3.org/2000/svg" xmlns:xlink="http://www.w3.org/1999/xlink">
    <!-- Generator: Sketch 40.3 (33839) - http://www.bohemiancoding.com/sketch -->
    <title>Stroke 5</title>
    <desc>Created with Sketch.</desc>
    <defs></defs>
    <g id="Pages" stroke="none" stroke-width="1" fill="none" fill-rule="evenodd">
        <g id="products-page" transform="translate(-520.000000, -924.000000)" stroke="#5F4784" stroke-width="4">
            <g id="Group-6" transform="translate(-6.000000, -2.000000)">
                <path d="M564.868325,926 L564.868325,931.794296 L564.868325,926 Z M556.50182,928.654126 L559.412621,933.667476 L556.50182,928.654126 Z M550.59284,935.109223 L555.638956,938.003641 L550.59284,935.109223 Z M548.71966,943.639563 L554.546723,943.639563 L548.71966,943.639563 Z M551.384709,951.956917 L556.430825,949.0625 L551.384709,951.956917 Z M580.73301,950.586165 L575.686893,947.691748 L580.73301,950.586165 Z M582.606189,942.061286 L576.779126,942.061286 L582.606189,942.061286 Z M579.941141,933.738471 L574.895024,936.63835 L579.941141,933.738471 Z M573.447816,927.862257 L570.537015,932.875607 L573.447816,927.862257 Z M547.900485,987.203277 L552.684466,987.203277 C554.410194,989.502427 557.151699,990.993325 560.253641,990.993325 L576.080097,990.993325 L576.080097,990.971481 L579.848301,990.971481 C582.212985,990.971481 584.135316,989.065534 584.135316,986.711772 C584.135316,984.352549 582.212985,982.441141 579.848301,982.441141 L583.277913,982.441141 C585.648058,982.441141 587.570388,980.529733 587.570388,978.175971 C587.570388,975.822209 585.648058,973.910801 583.277913,973.910801 L584.424757,973.910801 C586.789442,973.910801 588.711772,971.999393 588.711772,969.645631 C588.711772,967.291869 586.789442,965.380461 584.424757,965.380461 L586.712985,965.380461 C589.07767,965.380461 591,963.469053 591,961.115291 C591,958.761529 589.07767,956.850121 586.712985,956.850121 L574.698422,956.850121 C574.45267,956.850121 574.212379,956.871966 573.977549,956.915655 L569.171723,956.915655 L570.679005,951.612864 L570.679005,945.600121 C570.679005,942.651092 568.276092,940.259102 565.305218,940.259102 L563.519417,940.259102 C563.442961,940.259102 563.371966,940.264563 563.29551,940.270024 L563.29551,948.445388 L561.214806,951.36165 L553.40534,959.848301 C552.285801,961.022451 551.472087,962.46966 551.078883,964.091626 L547.900485,964.091626 L547.900485,987.203277 Z M528,962.344053 L543.733617,962.344053 L543.733617,995.902913 L528,995.902913 L528,962.344053 Z M539.823422,991.091626 L536.885316,991.091626 L539.823422,991.091626 Z" id="Stroke-5"></path>
            </g>
        </g>
    </g>
</svg>