<?xml version="1.0" encoding="UTF-8" standalone="no"?>
<svg width="831px" height="85px" viewBox="0 0 831 85" version="1.1" xmlns="http://www.w3.org/2000/svg" xmlns:xlink="http://www.w3.org/1999/xlink" xmlns:sketch="http://www.bohemiancoding.com/sketch/ns">
    <!-- Generator: Sketch 3.2.2 (9983) - http://www.bohemiancoding.com/sketch -->
    <title>Line 4 + Line 3</title>
    <desc>Created with Sketch.</desc>
    <defs>
        <radialGradient cx="47.6127387%" cy="50%" fx="47.6127387%" fy="50%" r="52.3872613%" id="radialGradient-1">
            <stop stop-color="#D7D1DA" offset="0%"></stop>
            <stop stop-color="#FFFFFF" stop-opacity="0" offset="100%"></stop>
        </radialGradient>
        <radialGradient cx="47.6127387%" cy="50%" fx="47.6127387%" fy="50%" r="52.3872613%" id="radialGradient-2">
            <stop stop-color="#3F206E" offset="0%"></stop>
            <stop stop-color="#FFFFFF" stop-opacity="0" offset="100%"></stop>
        </radialGradient>
    </defs>
    <g id="Page-1" stroke="none" stroke-width="1" fill="none" fill-rule="evenodd" sketch:type="MSPage">
        <g id="COMPANY" sketch:type="MSArtboardGroup" transform="translate(-166.000000, -436.000000)" stroke-linecap="round" stroke-width="3" stroke-linejoin="round">
            <g id="Line-4-+-Line-3" sketch:type="MSLayerGroup" transform="translate(167.000000, 298.000000)">
                <path d="M8.50000041,203.5 C8.50000041,203.5 272.5,203.5 290.5,203.5 C308.5,203.5 315.857608,144 324.5,144 C335.350795,144 343,204.081635 356.5,204.081635 C370,204.081635 376.5,144.5 387.5,144.5 C398.5,144.5 406,203.5 419.5,203.5 C433,203.5 439,144.5 451,144.5 C463,144.5 468,203.5 482.5,203.5 C497,203.5 502,144.5 513.5,144.5 C525,144.5 533,203.5 548.5,203.5 L830,203.5 L829,4 L829,404" id="Line-5" stroke="url(#radialGradient-1)" sketch:type="MSShapeGroup"></path>
                <path d="M0.500000407,199.5 C0.500000407,199.5 264.5,199.5 282.5,199.5 C300.5,199.5 307.857608,140 316.5,140 C327.350795,140 335,200.081635 348.5,200.081635 C362,200.081635 368.5,140.5 379.5,140.5 C390.5,140.5 398,199.5 411.5,199.5 C425,199.5 431,140.5 443,140.5 C455,140.5 460,199.5 474.5,199.5 C489,199.5 494,140.5 505.5,140.5 C517,140.5 525,199.5 540.5,199.5 L822,199.5 L821,0 L821,400" id="Line-3" stroke="url(#radialGradient-2)" sketch:type="MSShapeGroup"></path>
            </g>
        </g>
    </g>
</svg>